<svg width="219" height="61" viewBox="0 0 219 61" fill="none" xmlns="http://www.w3.org/2000/svg">
<g opacity="0.8" filter="url(#filter0_f_8860_212343)">
<path d="M193.346 32.6316L218 60H1L25.6539 32.6316H193.346Z" fill="black" fill-opacity="0.4"/>
</g>
<path d="M1.53636 50.6815H217.627L218 37.8423H1L1.53636 50.6815Z" fill="#1CB399"/>
<path d="M193.346 10.5263L218 37.8947H1L25.6539 10.5263H193.346Z" fill="#22E3C2"/>
<path d="M28.9232 12.6316L25.3952 16.6331L23.1004 19.2273L17.1749 25.961L14.4005 29.107L9.46826 34.7368H209.532L204.565 29.107L201.791 25.961L195.865 19.2549L193.57 16.6607L190.077 12.6316H28.9232ZM108.832 22.8149L108.798 25.7954C99.4471 25.7126 92.2201 24.2499 92.5283 22.5113C92.8023 20.8279 100.064 19.5032 108.866 19.4204L108.832 22.2077C108.181 22.2629 107.736 22.3733 107.736 22.5113C107.736 22.6493 108.181 22.7597 108.832 22.8149ZM110.271 22.7873C110.853 22.7321 111.264 22.6217 111.264 22.4837C111.264 22.3457 110.853 22.2353 110.271 22.1802L110.236 19.3928C118.971 19.4756 126.163 20.8003 126.437 22.4837C126.711 24.2223 119.553 25.685 110.271 25.7678V22.7873ZM24.2992 19.5032H34.9172L30.2247 25.685H18.9217L24.2992 19.5032ZM31.492 25.961L36.4928 19.2549H24.5047L26.5598 16.8815H50.0221L42.5895 28.8035H16.2158L18.6819 25.961H31.492ZM15.9418 29.107H43.9596L45.9462 25.823C51.8717 24.9951 55.6051 23.7808 56.2902 22.4837C56.9409 21.2419 54.5776 20.1104 49.8509 19.3652L51.4949 16.6331H26.7653L30.0535 12.8523H108.901L108.866 19.1445C99.3444 19.1997 91.4323 20.6623 91.0898 22.4837C90.7472 24.3879 98.6251 25.9885 108.798 26.0437L108.729 34.3781H11.3521L15.9418 29.107ZM49.6796 19.6964C53.55 20.3863 55.4681 21.3798 54.8858 22.4837C54.2693 23.6152 51.1524 24.6639 46.1859 25.4366L49.6796 19.6964ZM200.078 25.685H188.775L184.083 19.5032H194.701L200.078 25.685ZM182.507 19.2549L187.508 25.961H200.318L202.784 28.8035H176.376L168.944 16.8815H192.406L194.461 19.2549H182.507ZM167.471 16.6331L169.115 19.3652C164.388 20.1104 162.025 21.2419 162.676 22.4837C163.361 23.7808 167.094 24.9951 173.02 25.823L175.006 29.107H203.024L207.614 34.3781H110.339L110.271 26.0437C120.409 25.961 128.218 24.3603 127.876 22.4837C127.533 20.6623 119.69 19.2273 110.202 19.1445L110.168 12.8523H188.912L192.2 16.6331H167.471ZM172.814 25.4642C167.848 24.6915 164.731 23.6428 164.114 22.5113C163.532 21.4074 165.416 20.4139 169.32 19.724L172.814 25.4642Z" fill="white"/>
<g filter="url(#filter1_f_8860_212343)">
<ellipse cx="68.8666" cy="22.5841" rx="20.7729" ry="1.29583" fill="#1CB299" fill-opacity="0.5"/>
</g>
<g filter="url(#filter2_f_8860_212343)">
<ellipse cx="150.617" cy="22.2958" rx="20.7729" ry="1.29583" fill="#1CB299" fill-opacity="0.5"/>
</g>
<defs>
<filter id="filter0_f_8860_212343" x="0.0210554" y="31.6526" width="218.958" height="29.3263" filterUnits="userSpaceOnUse" color-interpolation-filters="sRGB">
<feFlood flood-opacity="0" result="BackgroundImageFix"/>
<feBlend mode="normal" in="SourceGraphic" in2="BackgroundImageFix" result="shape"/>
<feGaussianBlur stdDeviation="0.489472" result="effect1_foregroundBlur_8860_212343"/>
</filter>
<filter id="filter1_f_8860_212343" x="46.5963" y="19.7909" width="44.5407" height="5.58646" filterUnits="userSpaceOnUse" color-interpolation-filters="sRGB">
<feFlood flood-opacity="0" result="BackgroundImageFix"/>
<feBlend mode="normal" in="SourceGraphic" in2="BackgroundImageFix" result="shape"/>
<feGaussianBlur stdDeviation="0.748703" result="effect1_foregroundBlur_8860_212343"/>
</filter>
<filter id="filter2_f_8860_212343" x="128.346" y="19.5026" width="44.5407" height="5.58646" filterUnits="userSpaceOnUse" color-interpolation-filters="sRGB">
<feFlood flood-opacity="0" result="BackgroundImageFix"/>
<feBlend mode="normal" in="SourceGraphic" in2="BackgroundImageFix" result="shape"/>
<feGaussianBlur stdDeviation="0.748703" result="effect1_foregroundBlur_8860_212343"/>
</filter>
</defs>
</svg>
