<svg width="25" height="24" viewBox="0 0 25 24" fill="none" xmlns="http://www.w3.org/2000/svg">
<path fill-rule="evenodd" clip-rule="evenodd" d="M17.925 18.45C17.925 18.2 17.9 18 17.825 17.775C17.725 17.35 17.5 17 17.25 16.675C16.6049 15.9343 15.6401 15.4676 14.8357 15.0786L14.725 15.025L14.175 14.75C13.925 14.625 13.65 14.475 13.475 14.35C13.45 14.3375 13.4313 14.325 13.4125 14.3125C13.3938 14.3 13.375 14.2875 13.35 14.275V14.25C13.55 13.875 13.675 13.5 13.8 13.1C13.843 12.9925 13.8675 12.8665 13.8894 12.7539L13.9 12.7C13.925 12.675 13.95 12.6563 13.975 12.6375C14 12.6188 14.025 12.6 14.05 12.575C14.3 12.35 14.5 12.075 14.625 11.775C14.675 11.65 14.725 11.525 14.75 11.4L14.85 10.875C14.875 10.725 14.9 10.55 14.9 10.4C14.9 10.175 14.85 9.925 14.775 9.7L14.7 9.475C14.625 9.325 14.55 9.2 14.475 9.075V8.2C14.475 7.275 14.175 6.425 13.65 5.725C13.325 5.3 12.95 4.925 12.475 4.65C11.8 4.25 10.975 4 10.075 4H9.125C6.65 4 4.725 5.85 4.725 8.225C4.725 8.3 4.725 8.6 4.75 9.075C4.375 9.575 4.225 10.225 4.35 10.85L4.45 11.375C4.475 11.5 4.525 11.65 4.575 11.75C4.5875 11.775 4.6 11.8063 4.6125 11.8375C4.625 11.8688 4.6375 11.9 4.65 11.925C4.75 12.1 4.85 12.275 5 12.4C5.1 12.5 5.175 12.575 5.3 12.675C5.375 12.95 5.45 13.225 5.525 13.475C5.625 13.75 5.725 14 5.85 14.225V14.25C5.825 14.275 5.775 14.3 5.725 14.325C5.58919 14.422 5.4082 14.519 5.20542 14.6277C5.14691 14.6591 5.08658 14.6914 5.025 14.725L4.475 15L4.43625 15.0182C3.59403 15.4145 2.59015 15.8867 1.95 16.65C1.675 17 1.475 17.35 1.35 17.75C1.3 17.95 1.25 18.175 1.25 18.425V22.525H17.925V18.45Z" fill="#5AF7DC"/>
<path d="M23.725 22.525V18.45C23.7 16.55 21.85 15.675 20.5 15.05L20.4515 15.0272C20.0236 14.826 19.3657 14.5166 19.125 14.3V14.25C19.4 13.775 19.55 13.225 19.675 12.675C20.1 12.35 20.4 11.9 20.525 11.35L20.625 10.825C20.75 10.175 20.6 9.55 20.225 9.05C20.25 8.575 20.25 8.275 20.25 8.2C20.275 5.85 18.325 4 15.875 4H14.925C14.675 4 14.425 4.025 14.175 4.075C14.625 4.5 15 4.975 15.3 5.5H15.875C17.625 5.5 18.775 6.775 18.775 8.225C18.775 8.225 18.775 8.8 18.7 9.7C19.05 9.825 19.25 10.175 19.175 10.525L19.075 11.05C19 11.375 18.725 11.6 18.4 11.625C18.3875 11.7 18.375 11.7688 18.3625 11.8375C18.35 11.9062 18.3375 11.975 18.325 12.05C18.175 12.725 18 13.375 17.65 13.8V14.45C17.6745 15.3208 18.7701 15.8366 19.8829 16.3605C21.0383 16.9045 22.2123 17.4571 22.225 18.425V21.025H19.425V22.525H23.725Z" fill="#5AF7DC"/>
</svg>
