<svg width="123" height="122" viewBox="0 0 123 122" fill="none" xmlns="http://www.w3.org/2000/svg">
<g clip-path="url(#clip0_72_86852)">
<rect x="1.5" y="1" width="120" height="120" rx="60" fill="#000040"/>
<path d="M39.0293 87.1525C53.415 81.6038 69.3502 81.6038 83.7359 87.1525L78.1475 98.6486H44.6176L39.0293 87.1525Z" fill="#061DA5"/>
<path d="M77.0299 69.5894H45.7354V105.355H77.0299V69.5894Z" fill="#DFCCBB"/>
<path fill-rule="evenodd" clip-rule="evenodd" d="M61.3826 83.0012C47.8027 83.0012 36.7939 71.6238 36.7939 57.5891V48.0594C36.7939 34.0247 47.8027 22.6473 61.3826 22.6473C74.9624 22.6473 85.9712 34.0247 85.9712 48.0594V57.5891C85.9712 71.6238 74.9624 83.0012 61.3826 83.0012Z" fill="#F8E4D2"/>
<path fill-rule="evenodd" clip-rule="evenodd" d="M61.3832 141.12C82.6374 141.12 104.226 140.825 117.5 126C117.499 120.7 111.183 105.584 106.438 103.37L77.1622 89.7073L61.3832 103.37L45.6045 89.7073L16.3282 103.37C11.5753 105.588 7.73651 111.683 7.73535 116.991C21.0098 131.815 40.1291 141.12 61.3832 141.12Z" fill="#061DA5"/>
<path d="M61.3826 105.355L45.7354 89.7074L61.3826 102.51L77.0299 89.7074L61.3826 105.355Z" fill="#F1F3F8"/>
<path fill-rule="evenodd" clip-rule="evenodd" d="M73.6769 36.4856C80.4669 36.4856 85.9712 42.2995 85.9712 49.4713V33.239C85.9712 26.0958 80.4651 20.2534 73.6731 20.2534H72.1401L68.9129 13.4362C68.1324 11.7874 66.2598 11.0506 64.6933 11.7125L45.3555 19.8826C40.6244 21.8814 36.7939 27.8627 36.7939 33.2446V49.4713C36.7939 42.2995 42.2982 36.4856 49.0883 36.4856H73.6769Z" fill="#918C86"/>
</g>
<rect x="1" y="0.5" width="121" height="121" rx="60.5" stroke="white" stroke-opacity="0.55"/>
<defs>
<clipPath id="clip0_72_86852">
<rect x="1.5" y="1" width="120" height="120" rx="60" fill="white"/>
</clipPath>
</defs>
</svg>
