<svg width="25" height="24" viewBox="0 0 25 24" fill="none" xmlns="http://www.w3.org/2000/svg">
<path fill-rule="evenodd" clip-rule="evenodd" d="M17.925 18.45V22.525H1.25V18.425C1.25 18.175 1.3 17.95 1.35 17.75C1.475 17.35 1.675 17 1.95 16.65C2.59015 15.8867 3.59403 15.4145 4.43625 15.0182L4.475 15L5.025 14.725C5.08658 14.6914 5.1469 14.6591 5.20541 14.6277C5.4082 14.519 5.58918 14.422 5.725 14.325C5.775 14.3 5.825 14.275 5.85 14.25V14.225C5.725 14 5.625 13.75 5.525 13.475C5.45 13.225 5.375 12.95 5.3 12.675C5.175 12.575 5.1 12.5 5 12.4C4.85 12.275 4.75 12.1 4.65 11.925C4.6375 11.9 4.625 11.8688 4.6125 11.8375C4.6 11.8063 4.5875 11.775 4.575 11.75C4.525 11.65 4.475 11.5 4.45 11.375L4.35 10.85C4.225 10.225 4.375 9.575 4.75 9.075C4.725 8.6 4.725 8.3 4.725 8.225C4.725 5.85 6.65 4 9.125 4H10.075C10.975 4 11.8 4.25 12.475 4.65C12.95 4.925 13.325 5.3 13.65 5.725C14.175 6.425 14.475 7.275 14.475 8.2V9.075C14.55 9.2 14.625 9.325 14.7 9.475L14.775 9.7C14.85 9.925 14.9 10.175 14.9 10.4C14.9 10.55 14.875 10.725 14.85 10.875L14.75 11.4C14.725 11.525 14.675 11.65 14.625 11.775C14.5 12.075 14.3 12.35 14.05 12.575C14.025 12.6 14 12.6187 13.975 12.6375C13.95 12.6562 13.925 12.675 13.9 12.7C13.8965 12.7175 13.893 12.7355 13.8894 12.7539C13.8675 12.8665 13.843 12.9925 13.8 13.1C13.675 13.5 13.55 13.875 13.35 14.25V14.275C13.375 14.2875 13.3938 14.3 13.4125 14.3125C13.4313 14.325 13.45 14.3375 13.475 14.35C13.65 14.475 13.925 14.625 14.175 14.75L14.725 15.025C14.7615 15.0427 14.7984 15.0606 14.8357 15.0786C15.6401 15.4676 16.6049 15.9343 17.25 16.675C17.5 17 17.725 17.35 17.825 17.775C17.9 18 17.925 18.2 17.925 18.45ZM16.425 21.05V18.45C16.4084 17.4844 15.2277 16.929 14.0715 16.3852C13.4915 16.1123 12.9176 15.8424 12.5 15.525C12.125 15.225 11.85 14.9 11.85 14.475V13.825C12.175 13.4 12.35 12.775 12.5 12.125C12.525 12.1 12.525 12.075 12.525 12.05C12.5375 11.975 12.55 11.9062 12.5625 11.8375C12.575 11.7688 12.5875 11.7 12.6 11.625C12.925 11.6 13.2 11.375 13.275 11.05L13.375 10.525C13.45 10.175 13.25 9.825 12.9 9.7C12.975 8.8 12.975 8.225 12.975 8.225C12.975 7.675 12.8 7.15 12.5 6.7C12.2 6.3 11.8 5.95 11.325 5.75C10.95 5.6 10.55 5.5 10.075 5.5H9.125C7.375 5.5 6.2 6.775 6.2 8.25C6.2 8.25 6.175 8.825 6.275 9.725C5.95 9.825 5.725 10.175 5.8 10.55L5.9 11.075C5.975 11.4 6.25 11.625 6.575 11.65C6.5875 11.725 6.6 11.7938 6.6125 11.8625C6.625 11.9313 6.6375 12 6.65 12.075C6.65822 12.1067 6.66638 12.1383 6.67451 12.1697C6.83953 12.8083 6.99143 13.3961 7.325 13.825V14.475C7.31271 15.3473 6.21362 15.8634 5.09592 16.3882C3.93928 16.9313 2.76271 17.4837 2.75 18.45V21.05H16.425Z" fill="white"/>
<path d="M23.725 22.525H19.425V21.025H22.225V18.425C22.2123 17.4571 21.0383 16.9045 19.8829 16.3605C18.7701 15.8366 17.6745 15.3208 17.65 14.45V13.8C18 13.375 18.175 12.725 18.325 12.05C18.3375 11.975 18.35 11.9062 18.3625 11.8375C18.375 11.7688 18.3875 11.7 18.4 11.625C18.725 11.6 19 11.375 19.075 11.05L19.175 10.525C19.25 10.175 19.05 9.825 18.7 9.7C18.775 8.8 18.775 8.225 18.775 8.225C18.775 6.775 17.625 5.5 15.875 5.5H15.3C15 4.975 14.625 4.5 14.175 4.075C14.425 4.025 14.675 4 14.925 4H15.875C18.325 4 20.275 5.85 20.25 8.2C20.25 8.275 20.25 8.575 20.225 9.05C20.6 9.55 20.75 10.175 20.625 10.825L20.525 11.35C20.4 11.9 20.1 12.35 19.675 12.675C19.55 13.225 19.4 13.775 19.125 14.25V14.3C19.3657 14.5166 20.0236 14.826 20.4515 15.0272C20.468 15.035 20.4842 15.0426 20.5 15.05C21.85 15.675 23.7 16.55 23.725 18.45V22.525Z" fill="white"/>
</svg>
