<svg width="68" height="68" viewBox="0 0 68 68" fill="none" xmlns="http://www.w3.org/2000/svg">
<g clip-path="url(#clip0_14311_5887)">
<mask id="path-1-inside-1_14311_5887" fill="white">
<path d="M0 10C0 4.47715 4.47715 0 10 0H58C63.5228 0 68 4.47715 68 10V58C68 63.5228 63.5228 68 58 68H10C4.47715 68 0 63.5228 0 58V10Z"/>
</mask>
<path d="M0 10C0 4.47715 4.47715 0 10 0H58C63.5228 0 68 4.47715 68 10V58C68 63.5228 63.5228 68 58 68H10C4.47715 68 0 63.5228 0 58V10Z" fill="url(#paint0_linear_14311_5887)"/>
<path d="M27.7692 15.9164V13.5993C27.7692 11.0561 28.4038 9.69977 31.8077 6.87402L33.8846 5.12206C36.25 3.08752 37.1154 1.33556 37.1154 -0.35989C37.1154 -3.24215 35.3269 -5.10714 32.0962 -5.10714C29.3269 -5.10714 25.9808 -3.86382 23.9615 -2.33791L23.5 -7.36774C25.9808 -9.00667 29.4423 -10.25 33.1346 -10.25C40.4038 -10.25 44.5 -6.63304 44.5 -1.26413C44.5 1.95722 43.4038 4.21782 39.4231 7.5522L37 9.58673C34.6346 11.6213 34.4038 12.1299 34.4038 14.447V15.9164H27.7692ZM27.5962 25.75V21.0027L34.4038 19.7594V25.75H27.5962Z" fill="#EEF0F8"/>
<path d="M27.7692 67.6664V65.3493C27.7692 62.8061 28.4038 61.4498 31.8077 58.624L33.8846 56.8721C36.25 54.8375 37.1154 53.0856 37.1154 51.3901C37.1154 48.5078 35.3269 46.6429 32.0962 46.6429C29.3269 46.6429 25.9808 47.8862 23.9615 49.4121L23.5 44.3823C25.9808 42.7433 29.4423 41.5 33.1346 41.5C40.4038 41.5 44.5 45.117 44.5 50.4859C44.5 53.7072 43.4038 55.9678 39.4231 59.3022L37 61.3367C34.6346 63.3713 34.4038 63.8799 34.4038 66.197V67.6664H27.7692ZM27.5962 77.5V72.7527L34.4038 71.5094V77.5H27.5962Z" fill="#EEF0F8"/>
<rect opacity="0.6" x="0.4" y="0.4" width="67.2" height="67.2" rx="9.6" stroke="url(#paint1_linear_14311_5887)" stroke-width="0.8"/>
</g>
<path d="M0 10C0 4.03058 4.83917 -0.808587 10.8086 -0.808587H57.1914C63.1608 -0.808587 68 4.03058 68 10C68 4.92372 63.5228 0.808587 58 0.808587H10C4.47715 0.808587 0 4.92372 0 10ZM68 68H0H68ZM0 68V0V68ZM68 0V68V0Z" fill="url(#paint2_linear_14311_5887)" mask="url(#path-1-inside-1_14311_5887)"/>
<defs>
<linearGradient id="paint0_linear_14311_5887" x1="8.65711" y1="0.265844" x2="37.0493" y2="76.5201" gradientUnits="userSpaceOnUse">
<stop offset="0.005" stop-color="#263FF2"/>
<stop offset="0.877236" stop-color="#0019C6"/>
</linearGradient>
<linearGradient id="paint1_linear_14311_5887" x1="34" y1="0" x2="34" y2="68" gradientUnits="userSpaceOnUse">
<stop offset="0.84" stop-opacity="0.3"/>
<stop offset="1" stop-color="#1CB299" stop-opacity="0.5"/>
</linearGradient>
<linearGradient id="paint2_linear_14311_5887" x1="68" y1="34" x2="2.49898e-06" y2="34" gradientUnits="userSpaceOnUse">
<stop stop-color="#0232FF"/>
<stop offset="0.5" stop-color="#FFD300"/>
<stop offset="1" stop-color="#9A00FF"/>
</linearGradient>
<clipPath id="clip0_14311_5887">
<path d="M0 10C0 4.47715 4.47715 0 10 0H58C63.5228 0 68 4.47715 68 10V58C68 63.5228 63.5228 68 58 68H10C4.47715 68 0 63.5228 0 58V10Z" fill="white"/>
</clipPath>
</defs>
</svg>
