<svg width="6" height="6" viewBox="0 0 6 6" fill="none" xmlns="http://www.w3.org/2000/svg">
<path d="M0.193729 0.193699C-0.0645761 0.452004 -0.0645766 0.8708 0.193729 1.12911L2.06462 2.99999L0.193776 4.87083C-0.0645293 5.12914 -0.0645293 5.54794 0.193776 5.80624C0.452082 6.06455 0.870877 6.06455 1.12918 5.80624L3.00002 3.9354L4.87076 5.80614C5.12907 6.06445 5.54787 6.06445 5.80617 5.80614C6.06448 5.54784 6.06448 5.12904 5.80617 4.87073L3.93543 2.99999L5.80622 1.12921C6.06452 0.8709 6.06452 0.452104 5.80622 0.193799C5.54791 -0.0645068 5.12912 -0.0645073 4.87081 0.193798L3.00002 2.06459L1.12914 0.193699C0.870831 -0.0646069 0.452035 -0.0646069 0.193729 0.193699Z" fill="white"/>
</svg>
