<svg width="18" height="18" viewBox="0 0 18 18" fill="none" xmlns="http://www.w3.org/2000/svg">
<path fill-rule="evenodd" clip-rule="evenodd" d="M8.13657 3.193C8.52485 2.53592 9.47555 2.53593 9.86382 3.19301L15.1592 12.1543C15.5543 12.823 15.0723 13.6678 14.2955 13.6678H3.70486C2.92813 13.6678 2.44609 12.823 2.84123 12.1543L8.13657 3.193ZM9.81372 6.03073C9.81372 5.75373 9.58916 5.52917 9.31215 5.52917H8.68761C8.4106 5.52917 8.18604 5.75373 8.18604 6.03073V9.36808C8.18604 9.64509 8.4106 9.86965 8.68761 9.86965H9.31215C9.58916 9.86965 9.81372 9.64509 9.81372 9.36808V6.03073ZM8.99988 10.9548C8.55041 10.9548 8.18604 11.3191 8.18604 11.7686C8.18604 12.2181 8.55041 12.5824 8.99988 12.5824C9.44935 12.5824 9.81372 12.2181 9.81372 11.7686C9.81372 11.3191 9.44935 10.9548 8.99988 10.9548Z" fill="white"/>
</svg>
