<svg width="18" height="18" viewBox="0 0 18 18" fill="none" xmlns="http://www.w3.org/2000/svg">
<path fill-rule="evenodd" clip-rule="evenodd" d="M14.8333 9C14.8333 12.2217 12.2217 14.8333 9 14.8333C5.77834 14.8333 3.16667 12.2217 3.16667 9C3.16667 5.77834 5.77834 3.16667 9 3.16667C12.2217 3.16667 14.8333 5.77834 14.8333 9ZM13.5833 9C13.5833 11.5313 11.5313 13.5833 9 13.5833C7.97267 13.5833 7.02428 13.2453 6.25997 12.6745L12.6745 6.25997C13.2453 7.02428 13.5833 7.97267 13.5833 9ZM5.36916 11.7975L11.7975 5.36917C11.0235 4.77193 10.0532 4.41667 9 4.41667C6.4687 4.41667 4.41667 6.4687 4.41667 9C4.41667 10.0532 4.77193 11.0235 5.36916 11.7975Z" fill="white"/>
</svg>
