<svg width="16" height="16" viewBox="0 0 16 16" fill="none" xmlns="http://www.w3.org/2000/svg">
<path d="M6.73551 2.75C6.77105 2.75 7.17226 2.99856 8 2.99856C8.82775 2.99856 9.22895 2.75 9.2645 2.75C9.30367 2.75 9.4085 2.85851 9.43755 2.8894C10.1337 3.22382 10.8386 3.38096 11.262 3.57313C11.4773 3.67081 11.6072 3.74092 11.7011 3.80801C11.7829 3.86282 11.8421 3.91499 11.9091 3.97898L11.9414 4.01006C12.1785 4.2372 12.6008 4.60342 12.7781 5.3377C12.8442 5.61131 13.0732 6.51225 13.1851 7.00788C13.2288 7.16916 13.2617 7.32234 13.246 7.34147C13.2167 7.37725 13.0289 7.4584 12.475 7.58469C11.8842 7.71948 11.2589 7.73683 11.2198 7.69781C11.1961 7.67407 11.1417 7.49541 11.121 7.39133C11.0588 7.16789 10.9859 6.89213 10.95 6.81604C10.9002 7.01337 10.8692 7.25214 10.8692 7.51463C10.8692 8.2566 10.8727 8.80242 10.8727 9.66153C10.8727 10.5207 10.8714 12.8123 10.8714 13.0661C10.8714 13.2937 9.38238 13.2458 8 13.2458C6.61762 13.2458 5.12858 13.2937 5.12858 13.0661C5.12858 12.8123 5.12726 10.5207 5.12726 9.66153C5.12726 8.80242 5.13081 8.2566 5.13081 7.51463C5.13081 7.25214 5.09982 7.01337 5.05003 6.81604C5.01413 6.89213 4.94119 7.16789 4.87902 7.39133C4.85833 7.49541 4.80393 7.67407 4.78016 7.6978C4.74106 7.73683 4.11576 7.71948 3.52503 7.58469C2.97111 7.4584 2.78331 7.37725 2.75396 7.34147C2.73831 7.32234 2.77118 7.16916 2.81494 7.00788C2.92682 6.51225 3.1558 5.61131 3.22189 5.3377C3.3992 4.60342 3.82155 4.2372 4.0586 4.01006L4.09088 3.97898C4.15793 3.91499 4.21709 3.86282 4.29893 3.80801C4.39281 3.74092 4.52268 3.67081 4.73799 3.57313C5.16144 3.38096 5.86631 3.22382 6.56245 2.8894C6.5915 2.85851 6.69633 2.75 6.73551 2.75Z" fill="white"/>
</svg>
