<svg width="16" height="16" viewBox="0 0 16 16" fill="none" xmlns="http://www.w3.org/2000/svg">
<path fill-rule="evenodd" clip-rule="evenodd" d="M11.1588 8.60289C10.6486 8.79226 10.1838 9.07494 9.78508 9.43021V8.93421C9.78508 8.8421 9.78508 8.75 9.87718 8.65789C10.0179 8.37645 10.1049 8.095 10.1792 7.85462C10.2021 7.78033 10.2239 7.70997 10.2456 7.64474V7.55263V7.36842C10.2456 7.18421 10.3377 7.0921 10.5219 7C10.7683 6.83577 10.8682 6.52515 10.9522 6.26389C10.9625 6.2321 10.9725 6.20103 10.9824 6.17105C11.0745 5.89474 11.0745 5.43421 10.7982 5.15789C10.7061 5.06579 10.7061 4.88158 10.7061 4.78947V4.23684V4.23683C10.7061 3.77631 10.7061 3.40789 10.614 3.22368C10.2456 1.8421 8.86402 1.19737 7.75876 1.19737C6.56139 1.19737 5.17981 1.75 4.81139 3.22368C4.81139 3.28785 4.80022 3.35202 4.78565 3.43565C4.7584 3.5921 4.71929 3.81669 4.71929 4.23684V4.78947C4.71929 4.88158 4.71929 5.06579 4.62718 5.15789C4.35087 5.3421 4.35087 5.80263 4.44297 6.07895C4.44297 6.35526 4.62718 6.72368 4.9035 6.90789C4.9956 7 5.08771 7.0921 5.17981 7.27631V7.36842V7.46053V7.55263C5.17981 7.59868 5.20284 7.66776 5.22587 7.73684C5.24889 7.80592 5.27192 7.875 5.27192 7.92105V7.92106C5.27192 8.19737 5.27192 8.28947 5.36402 8.47368C5.36402 8.51974 5.38705 8.56579 5.41008 8.61184C5.4331 8.65789 5.45613 8.70395 5.45613 8.75V9.30263C5.45613 9.57895 5.27192 9.76316 4.9956 9.76316L2.78508 10.3158C2.41666 10.5921 1.95613 11.7895 1.86402 12.6184L1.77192 13.4474C1.77192 13.5395 1.77192 13.6316 1.86402 13.7237C1.86402 13.7237 1.95613 13.8158 2.04824 13.8158H8.48733C8.59532 14.2094 8.75743 14.5807 8.96518 14.9211H2.04824C1.67981 14.9211 1.31139 14.7368 1.03508 14.4605C0.758762 14.1842 0.666656 13.8158 0.666656 13.3553L0.758762 12.5263C0.850867 11.8816 1.31139 9.76316 2.32455 9.30263H2.41666L4.25876 8.8421C4.16666 8.56579 4.16666 8.38158 4.16666 8.19737C4.16666 8.10526 4.16666 8.01316 4.07455 7.92105V7.82895V7.73684C3.61402 7.36842 3.42981 6.90789 3.33771 6.26316C3.2456 5.61842 3.33771 5.06579 3.61402 4.60526V4.14474V4.14473C3.61402 3.5 3.61402 3.13158 3.70613 2.85526C4.16666 1.10526 5.73245 0 7.75876 0C9.60087 0 11.2588 1.19737 11.6272 2.85526C11.7193 3.13158 11.7193 3.5 11.7193 4.14474V4.60526C11.9956 5.06579 12.0877 5.61842 11.9956 6.35526C11.9035 6.90789 11.7193 7.36842 11.3509 7.73684V7.82895V7.92105C11.294 8.14833 11.2372 8.37561 11.1588 8.60289Z" fill="#FF9E33"/>
<path fill-rule="evenodd" clip-rule="evenodd" d="M12.6667 15.6667C14.3235 15.6667 15.6667 14.3235 15.6667 12.6667C15.6667 11.0098 14.3235 9.66669 12.6667 9.66669C11.0098 9.66669 9.66666 11.0098 9.66666 12.6667C9.66666 14.3235 11.0098 15.6667 12.6667 15.6667ZM12.2407 10.7635C12.2407 10.6385 12.3421 10.5371 12.4671 10.5371H12.8662C12.9912 10.5371 13.0926 10.6385 13.0926 10.7635V12.2407H14.5699C14.6949 12.2407 14.7962 12.3421 14.7962 12.4671V12.8662C14.7962 12.9912 14.6949 13.0926 14.5699 13.0926H13.0926V14.5699C13.0926 14.6949 12.9912 14.7963 12.8662 14.7963H12.4671C12.3421 14.7963 12.2407 14.6949 12.2407 14.5699V13.0926H10.7634C10.6384 13.0926 10.5371 12.9912 10.5371 12.8662V12.4671C10.5371 12.3421 10.6384 12.2407 10.7634 12.2407H12.2407V10.7635Z" fill="#FF9E33"/>
</svg>
