<svg width="20" height="20" viewBox="0 0 20 20" fill="none" xmlns="http://www.w3.org/2000/svg">
<path d="M9.16797 4.99999C9.16797 4.53975 9.54106 4.16666 10.0013 4.16666C10.4615 4.16666 10.8346 4.53975 10.8346 4.99999V15C10.8346 15.4602 10.4615 15.8333 10.0013 15.8333C9.54106 15.8333 9.16797 15.4602 9.16797 15V4.99999Z" fill="white" fill-opacity="0.8"/>
<path d="M4.16797 8.33332C4.16797 7.87309 4.54106 7.49999 5.0013 7.49999C5.46154 7.49999 5.83464 7.87309 5.83464 8.33332V15C5.83464 15.4602 5.46154 15.8333 5.0013 15.8333C4.54106 15.8333 4.16797 15.4602 4.16797 15V8.33332Z" fill="white" fill-opacity="0.8"/>
<path d="M15.0013 10.8333C14.5411 10.8333 14.168 11.2064 14.168 11.6667V15C14.168 15.4602 14.5411 15.8333 15.0013 15.8333C15.4615 15.8333 15.8346 15.4602 15.8346 15V11.6667C15.8346 11.2064 15.4615 10.8333 15.0013 10.8333Z" fill="white" fill-opacity="0.8"/>
</svg>
