<svg width="16" height="16" viewBox="0 0 16 16" fill="none" xmlns="http://www.w3.org/2000/svg">
<path fill-rule="evenodd" clip-rule="evenodd" d="M7.77734 9.96191C7.77734 10.222 8.00423 10.4378 8.26432 10.4378C8.52995 10.4378 8.7513 10.222 8.7513 9.96191V2.40267L8.71257 1.35677L9.29362 1.95443L10.4557 3.17741C10.5443 3.27702 10.6715 3.32682 10.7878 3.32682C11.0423 3.32682 11.236 3.14421 11.236 2.89518C11.236 2.7679 11.1807 2.66829 11.0921 2.57422L8.61849 0.166992C8.49675 0.0452474 8.38607 0.000976562 8.26432 0.000976562C8.14258 0.000976562 8.0319 0.0452474 7.91569 0.166992L5.43652 2.57422C5.34245 2.66829 5.29264 2.7679 5.29264 2.89518C5.29264 3.14421 5.47526 3.32682 5.72982 3.32682C5.84603 3.32682 5.97884 3.27702 6.06738 3.17741L7.23503 1.95443L7.81608 1.35124L7.77734 2.40267V9.96191ZM2 13.8356C2 15.2523 2.73047 15.9661 4.1582 15.9661H12.3649C13.7982 15.9661 14.5176 15.2467 14.5176 13.8356V6.74121C14.5176 5.33561 13.7982 4.61068 12.3649 4.61068H10.3506V5.59017H12.3483C13.1064 5.59017 13.5381 5.99967 13.5381 6.79102V13.7858C13.5381 14.5771 13.1064 14.9867 12.3483 14.9867H4.1748C3.4056 14.9867 2.98503 14.5771 2.98503 13.7858V6.79102C2.98503 5.99967 3.4056 5.59017 4.1748 5.59017H6.18359V4.61068H4.1582C2.73047 4.61068 2 5.32454 2 6.74121V13.8356Z" fill="#00004B"/>
</svg>
