<svg width="57" height="76" viewBox="0 0 57 76" fill="none" xmlns="http://www.w3.org/2000/svg">
<g filter="url(#filter0_d_10033_119843)">
<path d="M42.6744 32.4831C42.5902 32.3285 42.4681 32.1999 42.3205 32.1104C42.1729 32.021 42.0052 31.9738 41.8344 31.9738H29.1851L31.3058 15.1158C31.3285 14.8902 31.2776 14.6632 31.1613 14.4713C31.045 14.2794 30.87 14.1339 30.6644 14.0581C30.4589 13.9823 30.2349 13.9806 30.0284 14.0534C29.8218 14.1262 29.6449 14.2692 29.5259 14.4593L14.143 42.4983C14.0531 42.6505 14.0038 42.8249 14.0002 43.0036C13.9966 43.1822 14.0389 43.3586 14.1227 43.5146C14.2065 43.6706 14.3288 43.8005 14.477 43.8909C14.6251 43.9813 14.7937 44.029 14.9655 44.029H27.4258L25.7451 60.9124C25.7286 61.1372 25.7849 61.3613 25.9049 61.5491C26.0249 61.7368 26.2019 61.8774 26.4076 61.9485C26.6133 62.0196 26.8359 62.017 27.04 61.9413C27.2442 61.8655 27.4181 61.7209 27.5342 61.5304L42.6629 33.4945C42.7506 33.3421 42.7979 33.1681 42.7999 32.9905C42.802 32.8128 42.7587 32.6377 42.6744 32.4831Z" fill="white"/>
</g>
<defs>
<filter id="filter0_d_10033_119843" x="0" y="0" width="56.7998" height="76" filterUnits="userSpaceOnUse" color-interpolation-filters="sRGB">
<feFlood flood-opacity="0" result="BackgroundImageFix"/>
<feColorMatrix in="SourceAlpha" type="matrix" values="0 0 0 0 0 0 0 0 0 0 0 0 0 0 0 0 0 0 127 0" result="hardAlpha"/>
<feOffset/>
<feGaussianBlur stdDeviation="7"/>
<feComposite in2="hardAlpha" operator="out"/>
<feColorMatrix type="matrix" values="0 0 0 0 1 0 0 0 0 1 0 0 0 0 1 0 0 0 0.85 0"/>
<feBlend mode="overlay" in2="BackgroundImageFix" result="effect1_dropShadow_10033_119843"/>
<feBlend mode="normal" in="SourceGraphic" in2="effect1_dropShadow_10033_119843" result="shape"/>
</filter>
</defs>
</svg>
