<svg width="16" height="16" viewBox="0 0 16 16" fill="none" xmlns="http://www.w3.org/2000/svg">
<path fill-rule="evenodd" clip-rule="evenodd" d="M8.00926 4.73552C6.11913 4.73552 4.58691 6.26376 4.58691 8.14899C4.58691 10.0342 6.11913 11.5624 8.00926 11.5624C9.89936 11.5624 11.4316 10.0342 11.4316 8.14899C11.4316 6.26376 9.89936 4.73552 8.00926 4.73552ZM7.99887 10.3544C6.77194 10.3544 5.77734 9.3624 5.77734 8.13868C5.77734 6.91493 6.77194 5.9229 7.99887 5.9229C9.22578 5.9229 10.2204 6.91493 10.2204 8.13868C10.2204 9.3624 9.22578 10.3544 7.99887 10.3544Z" fill="#5AF7DC"/>
<path d="M11.5772 5.38095C12.0189 5.38095 12.377 5.02384 12.377 4.58329C12.377 4.14275 12.0189 3.78561 11.5772 3.78561C11.1356 3.78561 10.7775 4.14275 10.7775 4.58329C10.7775 5.02384 11.1356 5.38095 11.5772 5.38095Z" fill="#5AF7DC"/>
<path fill-rule="evenodd" clip-rule="evenodd" d="M5.24977 1.52999C5.96062 1.49764 6.18758 1.48999 7.99757 1.48999C9.80754 1.48999 10.0345 1.49764 10.7453 1.52999C11.4547 1.56226 11.9392 1.67464 12.3631 1.83898C12.8013 2.00883 13.173 2.23612 13.5435 2.60566C13.914 2.97523 14.1419 3.34593 14.3122 3.78305C14.477 4.20586 14.5896 4.68908 14.622 5.3966C14.6544 6.1056 14.6621 6.33197 14.6621 8.13728C14.6621 9.94256 14.6544 10.1689 14.622 10.8779C14.5896 11.5855 14.477 12.0687 14.3122 12.4915C14.1419 12.9286 13.914 13.2993 13.5435 13.6689C13.173 14.0384 12.8013 14.2657 12.3631 14.4356C11.9392 14.5999 11.4547 14.7123 10.7453 14.7445C10.0345 14.7769 9.80754 14.7845 7.99757 14.7845C6.18758 14.7845 5.96062 14.7769 5.24977 14.7445C4.54041 14.7123 4.05594 14.5999 3.63202 14.4356C3.19377 14.2657 2.82211 14.0384 2.45158 13.6689C2.08108 13.2993 1.85319 12.9286 1.6829 12.4915C1.51814 12.0687 1.40547 11.5855 1.37311 10.8779C1.34068 10.1689 1.33301 9.94256 1.33301 8.13728C1.33301 6.33197 1.34068 6.1056 1.37311 5.3966C1.40547 4.68908 1.51814 4.20586 1.6829 3.78305C1.85319 3.34593 2.08108 2.97523 2.45158 2.60566C2.82211 2.23612 3.19377 2.00883 3.63202 1.83898C4.05594 1.67464 4.54041 1.56226 5.24977 1.52999ZM8.01355 2.67738C9.79305 2.67738 10.0038 2.68416 10.7066 2.71614C11.3564 2.74569 11.7093 2.85398 11.9441 2.94502C12.2552 3.0656 12.4772 3.20964 12.7104 3.44227C12.9436 3.67486 13.088 3.8963 13.2089 4.20658C13.3002 4.44081 13.4088 4.79278 13.4384 5.44088C13.4705 6.14181 13.4773 6.35205 13.4773 8.12696C13.4773 9.90184 13.4705 10.1121 13.4384 10.813C13.4088 11.4611 13.3002 11.8131 13.2089 12.0473C13.088 12.3576 12.9436 12.579 12.7104 12.8116C12.4772 13.0442 12.2552 13.1883 11.9441 13.3089C11.7093 13.3999 11.3564 13.5082 10.7066 13.5378C10.0039 13.5697 9.79318 13.5765 8.01355 13.5765C6.2339 13.5765 6.02316 13.5697 5.32049 13.5378C4.6707 13.5082 4.31782 13.3999 4.08298 13.3089C3.77189 13.1883 3.54988 13.0442 3.31668 12.8116C3.08348 12.579 2.93904 12.3576 2.81814 12.0473C2.72687 11.8131 2.6183 11.4611 2.58867 10.813C2.5566 10.1121 2.5498 9.90184 2.5498 8.12696C2.5498 6.35205 2.5566 6.14181 2.58867 5.44088C2.6183 4.79278 2.72687 4.44081 2.81814 4.20658C2.93904 3.8963 3.08345 3.67486 3.31668 3.44227C3.54988 3.20964 3.77189 3.0656 4.08298 2.94502C4.31782 2.85398 4.6707 2.74569 5.32049 2.71614C6.02324 2.68416 6.23403 2.67738 8.01355 2.67738Z" fill="#5AF7DC"/>
</svg>
