<svg width="16" height="16" viewBox="0 0 16 16" fill="none" xmlns="http://www.w3.org/2000/svg">
<path fill-rule="evenodd" clip-rule="evenodd" d="M5.99992 3.33335H9.99992V2.66669C9.99992 2.2985 9.70144 2.00002 9.33325 2.00002H6.66658C6.2984 2.00002 5.99992 2.2985 5.99992 2.66669V3.33335ZM11.3333 3.33335V2.66669C11.3333 1.56212 10.4378 0.666687 9.33325 0.666687H6.66658C5.56202 0.666687 4.66658 1.56212 4.66658 2.66669V3.33335H3.33325H1.99992C1.63173 3.33335 1.33325 3.63183 1.33325 4.00002C1.33325 4.36821 1.63173 4.66669 1.99992 4.66669H2.66659V13.3334C2.66659 14.4379 3.56202 15.3334 4.66659 15.3334H11.3333C12.4378 15.3334 13.3333 14.4379 13.3333 13.3334V4.66669H13.9999C14.3681 4.66669 14.6666 4.36821 14.6666 4.00002C14.6666 3.63183 14.3681 3.33335 13.9999 3.33335H12.6666H11.3333ZM10.6666 4.66669H5.33325H3.99992V13.3334C3.99992 13.7015 4.2984 14 4.66659 14H11.3333C11.7014 14 11.9999 13.7015 11.9999 13.3334V4.66669H10.6666Z" fill="#D91D41"/>
</svg>
