<svg width="18" height="18" viewBox="0 0 18 18" fill="none" xmlns="http://www.w3.org/2000/svg">
<path fill-rule="evenodd" clip-rule="evenodd" d="M7.61575 9.72646L12.0614 5.22747C12.2098 5.06536 12.381 4.9899 12.575 5.00108C12.7691 5.01785 12.9374 5.08353 13.0801 5.19812C13.2228 5.31272 13.3112 5.45666 13.3455 5.62994C13.3797 5.78326 13.3385 5.92837 13.2218 6.06527L8.16363 11.2273C8.02666 11.3615 7.84403 11.4286 7.61575 11.4286C7.38747 11.4286 7.20484 11.3615 7.06787 11.2273L4.99141 9.04887C4.82591 8.87558 4.76027 8.6995 4.79452 8.52062C4.83447 8.34175 4.92435 8.19781 5.06418 8.08881C5.204 7.9798 5.37093 7.91971 5.56497 7.90853C5.75901 7.89735 5.93307 7.97282 6.08716 8.13492L7.61575 9.72646Z" fill="white"/>
</svg>
