<svg width="8" height="13" viewBox="0 0 8 13" fill="none" xmlns="http://www.w3.org/2000/svg">
<path d="M7.569 5.12078C7.54795 5.08213 7.51742 5.04998 7.48052 5.02761C7.44363 5.00524 7.40169 4.99345 7.35899 4.99345H4.19666L4.72683 0.778955C4.73252 0.722551 4.7198 0.665796 4.69072 0.617828C4.66163 0.56986 4.61788 0.533471 4.5665 0.51452C4.51512 0.495568 4.45911 0.495157 4.40748 0.513353C4.35585 0.531549 4.31161 0.567292 4.28187 0.614828L0.436148 7.62457C0.41366 7.66262 0.401334 7.70623 0.400443 7.75089C0.399551 7.79555 0.410126 7.83965 0.431077 7.87865C0.452027 7.91764 0.482595 7.95012 0.519629 7.97272C0.556663 7.99533 0.598822 8.00725 0.64176 8.00726H3.75683L3.33668 12.2281C3.33255 12.2843 3.34661 12.3403 3.37662 12.3873C3.40663 12.4342 3.45086 12.4694 3.50228 12.4871C3.55371 12.5049 3.60937 12.5043 3.6604 12.4853C3.71144 12.4664 3.75492 12.4302 3.78393 12.3826L7.56611 5.37363C7.58804 5.33552 7.59986 5.29203 7.60037 5.24761C7.60088 5.20319 7.59006 5.15943 7.569 5.12078Z" fill="white"/>
</svg>
