<svg width="32" height="32" viewBox="0 0 32 32" fill="none" xmlns="http://www.w3.org/2000/svg">
<path fill-rule="evenodd" clip-rule="evenodd" d="M14.4647 5.67658C15.1549 4.50844 16.8451 4.50844 17.5353 5.67658L26.9493 21.6079C27.6517 22.7967 26.7948 24.2984 25.4139 24.2984H6.58605C5.2052 24.2984 4.34824 22.7967 5.05072 21.6078L14.4647 5.67658ZM17.4463 10.7214C17.4463 10.229 17.047 9.82976 16.5546 9.82976H15.4443C14.9518 9.82976 14.5526 10.229 14.5526 10.7214V16.6545C14.5526 17.1469 14.9518 17.5462 15.4443 17.5462H16.5546C17.047 17.5462 17.4463 17.1469 17.4463 16.6545V10.7214ZM15.9994 19.4753C15.2004 19.4753 14.5526 20.123 14.5526 20.9221C14.5526 21.7211 15.2004 22.3689 15.9994 22.3689C16.7985 22.3689 17.4463 21.7211 17.4463 20.9221C17.4463 20.123 16.7985 19.4753 15.9994 19.4753Z" fill="white"/>
</svg>
