<svg width="24" height="24" viewBox="0 0 24 24" fill="none" xmlns="http://www.w3.org/2000/svg">
<g clip-path="url(#clip0_3334_3410)">
<path fill-rule="evenodd" clip-rule="evenodd" d="M8.44297 1.42913L4.70547 3.65759C4.47075 3.80615 4.38047 4.08471 4.47075 4.34469L5.55409 7.11169C5.12075 7.68738 4.75964 8.3002 4.48881 8.98731L1.61797 9.39586C1.3652 9.45157 1.16658 9.67442 1.16658 9.95297V14.4099C1.16658 14.6884 1.3652 14.9113 1.63603 14.967L4.50686 15.3755C4.7777 16.0441 5.13881 16.6755 5.57214 17.2512L4.48881 20.0182C4.39853 20.2781 4.48881 20.5567 4.72353 20.7053L8.46103 22.9337C8.69575 23.0823 8.98464 23.008 9.1652 22.8037L10.9527 20.4453C11.2958 20.501 11.6569 20.5196 11.9999 20.5196C12.3446 20.5196 12.6728 20.4857 13.016 20.4504C13.0324 20.4487 13.0488 20.447 13.0652 20.4453L14.8527 22.8037C15.0152 23.008 15.3221 23.0823 15.5569 22.9337L19.2944 20.7053C19.5291 20.5567 19.6194 20.2781 19.5291 20.0182L18.4458 17.2512C18.8791 16.6755 19.2402 16.0627 19.511 15.3755L22.3819 14.967C22.6346 14.9113 22.8333 14.6884 22.8333 14.4099V9.95297C22.8333 9.67442 22.6346 9.45157 22.3638 9.39586L19.493 8.98731C19.2221 8.31877 18.8791 7.66881 18.4458 7.11169L19.5291 4.34469C19.6194 4.08471 19.5291 3.80615 19.2944 3.65759L15.5569 1.42913C15.3221 1.28057 15.0333 1.35485 14.8527 1.55912L13.0652 3.91757C12.7041 3.86186 12.361 3.82472 11.9999 3.82472C11.6553 3.82472 11.327 3.85856 10.9839 3.89393C10.9675 3.89562 10.9511 3.89731 10.9346 3.899L9.14714 1.54055C8.96658 1.33628 8.67769 1.28057 8.44297 1.42913ZM8.74992 12C8.74992 13.7949 10.205 15.25 11.9999 15.25C13.7948 15.25 15.2499 13.7949 15.2499 12C15.2499 10.2051 13.7948 8.75 11.9999 8.75C10.205 8.75 8.74992 10.2051 8.74992 12Z" stroke="white" stroke-width="2"/>
</g>
<defs>
<clipPath id="clip0_3334_3410">
<rect width="24" height="24" fill="white" transform="translate(24) rotate(90)"/>
</clipPath>
</defs>
</svg>
