<svg width="52" height="52" viewBox="0 0 52 52" fill="none" xmlns="http://www.w3.org/2000/svg">
<g clip-path="url(#clip0_3434_116017)">
<path d="M26 52.0005C40.3594 52.0005 52 40.3599 52 26.0005C52 11.6411 40.3594 0.000488281 26 0.000488281C11.6406 0.000488281 0 11.6411 0 26.0005C0 40.3599 11.6406 52.0005 26 52.0005Z" fill="white"/>
<rect y="0.000488281" width="52" height="52" fill="white"/>
<path d="M15.5996 37.2919C22.2926 34.7103 29.7066 34.7103 36.3996 37.2919L33.7996 42.6405H18.1996L15.5996 37.2919Z" fill="#BBBBBB"/>
<path d="M15.5996 37.4404H17.6796C18.8284 37.4404 19.7596 38.3716 19.7596 39.5204V42.6404H16.9862L15.5996 37.4404Z" fill="#BBBBBB"/>
<path d="M36.4002 37.4404H34.3202C33.1715 37.4404 32.2402 38.3716 32.2402 39.5204V42.6404H35.0136L36.4002 37.4404Z" fill="#BBBBBB"/>
<path d="M33.2807 29.1205H18.7207V45.7605H33.2807V29.1205Z" fill="#DDDDDD"/>
<path fill-rule="evenodd" clip-rule="evenodd" d="M26.0005 35.3605C19.6824 35.3605 14.5605 30.0671 14.5605 23.5374V19.1037C14.5605 12.5739 19.6824 7.28052 26.0005 7.28052C32.3186 7.28052 37.4405 12.5739 37.4405 19.1037V23.5374C37.4405 30.0671 32.3186 35.3605 26.0005 35.3605Z" fill="#F4F3F2"/>
<path fill-rule="evenodd" clip-rule="evenodd" d="M25.9991 62.4005C35.4575 62.4005 50.9591 60.0486 50.9591 53.0291C50.9591 52.6404 50.9591 51.519 50.9591 51.1742C50.9585 48.7081 49.1689 45.8674 46.9612 44.8372L33.3403 38.4805L25.9991 44.8372L18.6579 38.4805L5.03694 44.8372C2.82562 45.869 1.03961 48.7046 1.03907 51.1742C1.03907 51.6615 1.03961 52.6283 1.03907 53.0291C1.02962 60.0296 16.5598 62.4005 25.9991 62.4005Z" fill="#BBBBBB"/>
<path d="M26.0007 45.7605L18.7207 38.4805L26.0007 44.4369L33.2807 38.4805L26.0007 45.7605Z" fill="#9C9C9C"/>
<path fill-rule="evenodd" clip-rule="evenodd" d="M31.7205 13.7188C34.8797 13.7188 37.4405 16.4237 37.4405 19.7604V12.2083C37.4405 8.88487 34.8788 6.16664 31.7188 6.16664H31.0055L29.5041 2.9949C29.1409 2.22777 28.2697 1.88501 27.5409 2.19294L18.5439 5.99412C16.3427 6.92409 14.5605 9.70691 14.5605 12.2109V19.7604C14.5605 16.4237 17.1214 13.7188 20.2805 13.7188H31.7205Z" fill="#9C9C9C"/>
<circle cx="26" cy="26.0005" r="25" stroke="#1A313C" stroke-width="2"/>
<rect x="4" y="45.4269" width="60" height="4" transform="rotate(-45 4 45.4269)" fill="#1A313C"/>
</g>
<rect x="0.5" y="0.500488" width="51" height="51" rx="25.5" stroke="white" stroke-opacity="0.55"/>
<defs>
<clipPath id="clip0_3434_116017">
<rect y="0.000488281" width="52" height="52" rx="26" fill="white"/>
</clipPath>
</defs>
</svg>
