<svg width="32" height="33" viewBox="0 0 32 33" fill="none" xmlns="http://www.w3.org/2000/svg">
<rect x="0.75" y="1.25" width="30.5" height="30.5" rx="15.25" stroke="white" stroke-width="1.5"/>
<path d="M20.5582 14.161C20.5301 14.1095 20.4894 14.0666 20.4402 14.0368C20.391 14.007 20.3351 13.9913 20.2781 13.9913H16.0617L16.7686 8.37194C16.7762 8.29673 16.7592 8.22106 16.7204 8.1571C16.6817 8.09315 16.6233 8.04463 16.5548 8.01936C16.4863 7.99409 16.4116 7.99354 16.3428 8.0178C16.2739 8.04206 16.215 8.08972 16.1753 8.1531L11.0477 17.4994C11.0177 17.5502 11.0013 17.6083 11.0001 17.6679C10.9989 17.7274 11.013 17.7862 11.0409 17.8382C11.0688 17.8902 11.1096 17.9335 11.159 17.9636C11.2084 17.9938 11.2646 18.0097 11.3218 18.0097H15.4753L14.915 23.6375C14.9095 23.7124 14.9283 23.7871 14.9683 23.8497C15.0083 23.9123 15.0673 23.9591 15.1359 23.9828C15.2044 24.0065 15.2786 24.0057 15.3467 23.9804C15.4147 23.9552 15.4727 23.907 15.5114 23.8435L20.5543 14.4982C20.5835 14.4474 20.5993 14.3894 20.6 14.3302C20.6007 14.2709 20.5862 14.2126 20.5582 14.161Z" fill="white"/>
</svg>
