<svg width="64" height="64" viewBox="0 0 64 64" fill="none" xmlns="http://www.w3.org/2000/svg">
<rect x="27.8193" y="18.0007" width="8.18208" height="27.8191" fill="black"/>
<path fill-rule="evenodd" clip-rule="evenodd" d="M28.9272 11.3526C30.3078 9.01627 33.688 9.01627 35.0686 11.3526L53.8965 43.2151C55.3014 45.5927 53.5875 48.5963 50.8258 48.5963H13.17C10.4083 48.5963 8.69441 45.5927 10.0994 43.2151L28.9272 11.3526ZM34.8904 21.4423C34.8904 20.4573 34.092 19.6589 33.1071 19.6589H30.8865C29.9016 19.6589 29.1031 20.4573 29.1031 21.4423V33.3084C29.1031 34.2933 29.9016 35.0917 30.8865 35.0917H33.1071C34.092 35.0917 34.8904 34.2933 34.8904 33.3084V21.4423ZM31.9968 38.9499C30.3987 38.9499 29.1031 40.2455 29.1031 41.8436C29.1031 43.4417 30.3987 44.7372 31.9968 44.7372C33.5949 44.7372 34.8904 43.4417 34.8904 41.8436C34.8904 40.2455 33.5949 38.9499 31.9968 38.9499Z" fill="#FFCD44"/>
</svg>
