<svg width="9" height="6" viewBox="0 0 9 6" fill="none" xmlns="http://www.w3.org/2000/svg">
<path fill-rule="evenodd" clip-rule="evenodd" d="M3.58278 4.41136L7.73205 0.212307C7.87054 0.061007 8.03034 -0.00942467 8.21144 0.0010098C8.39255 0.0166615 8.54968 0.0779631 8.68284 0.184916C8.81601 0.29187 8.89857 0.426212 8.93053 0.587946C8.96249 0.731047 8.92401 0.866481 8.81509 0.994249L4.09413 5.81218C3.96629 5.93739 3.79584 6 3.58278 6C3.36971 6 3.19926 5.93739 3.07142 5.81218L1.13339 3.77894C0.97892 3.61721 0.917665 3.45287 0.949624 3.28592C0.98691 3.11896 1.0708 2.98462 1.20131 2.88289C1.33181 2.78115 1.48761 2.72507 1.66871 2.71463C1.84982 2.7042 2.01228 2.77463 2.15609 2.92593L3.58278 4.41136Z" fill="white"/>
</svg>
