<svg width="16" height="16" viewBox="0 0 16 16" fill="none" xmlns="http://www.w3.org/2000/svg">
<path fill-rule="evenodd" clip-rule="evenodd" d="M12.375 4.72925H10.1646L10.0082 4.0735C9.85155 3.50498 9.35705 3.125 8.79134 3.125H7.20873C6.64302 3.125 6.14852 3.50498 5.9957 4.05858L5.83556 4.72925H3.625C3.14175 4.72925 2.75 5.121 2.75 5.60425V10.2709C2.75 11.4099 3.65633 12.3126 4.79167 12.3126H11.2083C12.3437 12.3126 13.25 11.4099 13.25 10.2709V5.60425C13.25 5.121 12.8583 4.72925 12.375 4.72925ZM9.27211 4.75833H6.72803L6.84295 4.2765C6.88763 4.11567 7.03817 4 7.20869 4H8.7913C8.96183 4 9.11236 4.11567 9.16088 4.29142L9.27211 4.75833ZM9.16667 7.93742C9.48883 7.93742 9.75 8.19858 9.75 8.52075C9.75 8.84292 9.48883 9.10408 9.16667 9.10408H8.58333V9.68742C8.58333 10.0096 8.32217 10.2707 8 10.2707C7.67784 10.2707 7.41667 10.0096 7.41667 9.68742V9.10408H6.83333C6.51117 9.10408 6.25 8.84292 6.25 8.52075C6.25 8.19858 6.51117 7.93742 6.83333 7.93742H7.41667V7.35408C7.41667 7.03192 7.67784 6.77075 8 6.77075C8.32217 6.77075 8.58333 7.03192 8.58333 7.35408V7.93742H9.16667Z" fill="white"/>
</svg>
