<svg width="16" height="16" viewBox="0 0 16 16" fill="none" xmlns="http://www.w3.org/2000/svg">
<path fill-rule="evenodd" clip-rule="evenodd" d="M7.28031 3.16067C7.60388 2.61311 8.39613 2.61311 8.71969 3.16068L13.1325 10.6285C13.4618 11.1857 13.0601 11.8897 12.4128 11.8897H3.58722C2.93995 11.8897 2.53825 11.1857 2.86753 10.6285L7.28031 3.16067ZM8.67794 5.52545C8.67794 5.29461 8.4908 5.10748 8.25996 5.10748H7.73951C7.50867 5.10748 7.32154 5.29461 7.32154 5.52545V8.30657C7.32154 8.53741 7.50867 8.72454 7.73951 8.72454H8.25996C8.4908 8.72454 8.67794 8.53741 8.67794 8.30657V5.52545ZM7.99974 9.62881C7.62518 9.62881 7.32154 9.93245 7.32154 10.307C7.32154 10.6816 7.62518 10.9852 7.99974 10.9852C8.3743 10.9852 8.67794 10.6816 8.67794 10.307C8.67794 9.93245 8.3743 9.62881 7.99974 9.62881Z" fill="white"/>
</svg>
