<svg width="24" height="24" viewBox="0 0 24 24" fill="none" xmlns="http://www.w3.org/2000/svg">
<rect x="3" y="3" width="18" height="18" rx="9" stroke="white" stroke-opacity="0.55"/>
<path d="M11.1001 12.4778C11.1001 11.9378 11.503 11.5 12.0001 11.5C12.4972 11.5 12.9001 11.9378 12.9001 12.4778V16.0222C12.9001 16.5622 12.4972 17 12.0001 17C11.503 17 11.1001 16.5622 11.1001 16.0222V12.4778Z" fill="white" fill-opacity="0.8"/>
<path d="M10.8496 8.54999C10.8496 9.18512 11.3645 9.69999 11.9996 9.69999C12.6348 9.69999 13.1496 9.18512 13.1496 8.54999C13.1496 7.91487 12.6348 7.39999 11.9996 7.39999C11.3645 7.39999 10.8496 7.91487 10.8496 8.54999Z" fill="white" fill-opacity="0.8"/>
</svg>
