<svg width="300" height="300" viewBox="0 0 300 300" fill="none" xmlns="http://www.w3.org/2000/svg">
<g clip-path="url(#clip0_1251_4057)">
<path d="M62.2217 159.344L66.0246 145.244H75.9486C79.967 145.244 82.3271 143.405 84.4953 135.878C86.222 129.88 85.5913 125.651 82.5242 125.651H71.3861L73.5464 117.767H83.4073C94.1459 117.767 98.6033 124.148 95.234 136.834C91.8016 149.878 84.8606 153.129 74.9262 153.129H73.7567L71.9643 160.425L62.2217 159.344Z" fill="white"/>
<path d="M104.375 117.767H114.748C124.682 118.053 128.772 124.721 125.849 135.615C124.388 140.989 121.468 147.155 116.719 150.737L115.988 175.113H105.323L106.564 153.683H105.032L99.2497 175.113H88.6582L104.375 117.767ZM107.589 145.794C110.803 145.794 113.066 142.566 114.819 135.042C116.572 127.73 116.427 125.651 113.213 125.651H112.627L107.15 145.794H107.589Z" fill="white"/>
<path d="M134.543 117.767H155.29L151.929 125.651H142.943L138.049 143.575H146.304L142.943 151.46H135.934L131.623 167.229H141.997L138.562 175.113H118.851L134.543 117.767Z" fill="white"/>
<path d="M159.235 117.767H169.022C179.982 117.767 183.477 128.59 178.3 147.586C173.406 165.431 165.159 175.108 154.194 175.108H143.529L159.235 117.767ZM156.751 167.229C160.549 167.229 163.472 161.137 167.855 145.297C171.871 130.532 171.798 125.657 167.782 125.657H167.635L156.239 167.229H156.751Z" fill="white"/>
<path d="M190.794 117.767H201.375L185.679 175.113H175.093L190.794 117.767Z" fill="white"/>
<path d="M198.242 145.72C203.356 126.942 210.663 117.052 219.267 117.052C227.086 117.052 230.592 123.36 227.677 133.751L217.669 136.117C219.935 127.302 219.509 125.294 217.961 125.294C215.477 125.294 213.212 131.457 208.975 147.155C204.739 162.564 203.864 167.581 206.274 167.581C207.879 167.581 209.196 165.718 211.68 157.331L220.518 160.054C217.522 170.948 211.898 175.823 204.957 175.823C195.028 175.826 192.839 165.652 198.242 145.72Z" fill="white"/>
<path d="M238.13 125.651H231.034L233.735 117.767H256.892L255.139 125.651H248.721L235.207 175.113H224.616L238.13 125.651Z" fill="white"/>
<path d="M100.298 223.871L110.743 221.721C108.698 230.037 109.137 231.755 110.89 231.755C113.155 231.755 114.251 229.821 115.2 226.236C117.975 216.202 105.476 207.314 108.99 194.415C111.329 185.813 117.027 181.227 124.696 181.227C132.659 181.227 136.677 186.817 133.828 197.353L123.529 199.503C125.647 191.187 125.426 189.468 123.381 189.468C122.212 189.468 120.533 191.045 119.584 194.627C116.661 205.164 129.308 213.981 125.721 227.169C123.308 235.842 117.536 240 109.72 240C101.612 240 97.4494 234.407 100.298 223.871Z" fill="white"/>
<path d="M142.084 181.947H152.675L136.969 239.283H126.378L142.084 181.947Z" fill="white"/>
<path d="M155.963 208.318L156.838 181.947H166.846L165.676 198.79H165.968L173.779 181.947H183.422L169.111 209.466L168.381 239.283H158.081L159.613 218.927H159.248L149.679 239.283H140.036L155.963 208.318Z" fill="white"/>
<path d="M60.0325 167.247L71.2074 164.953L68.4321 175.203H57.8406L60.0325 167.247Z" fill="white"/>
<path d="M263.87 150.905C281.245 131.552 289.061 105.517 292.372 80.179C292.572 78.4812 292.753 76.7624 292.864 75.0856L293.944 76.2394C285.747 76.4904 277.558 75.5457 269.633 73.4352C262.667 71.6195 255.942 68.9779 249.602 65.5664C248.682 65.0566 247.762 64.5309 246.871 63.9606H249.021C236.038 71.8845 220.211 76.3761 205.02 76.6126C204.029 76.6336 202.918 76.5995 201.945 76.5942L203.38 75.1461C203.38 78.2578 203.596 81.4221 203.89 84.5312C204.83 94.007 206.725 103.363 209.546 112.458C204.7 101.451 201.769 89.5931 200.663 77.6244C200.523 76.4339 200.521 74.9963 200.455 73.7794C202.92 73.6822 205.414 73.5981 207.864 73.351C221.155 72.041 234.029 67.9785 245.665 61.4218C246.351 61.0118 247.289 60.4363 247.951 60C255.31 64.7675 263.573 68.0974 271.983 70.5521C279.514 72.6966 287.283 73.8947 295.111 74.1185L295.014 75.2302C292.165 101.648 282.748 131.583 263.859 150.905H263.87Z" fill="#0A9DFD"/>
<path d="M258.69 136.498C270.987 122.86 276.582 103.312 278.262 85.3407L278.982 86.1108C267.829 86.3953 256.822 83.5198 247.234 77.8163H248.655C247.454 78.5863 246.24 79.246 244.976 79.8925C237.53 83.572 229.359 85.8663 221.06 86.2842C219.68 86.3604 218.295 86.3604 216.912 86.342L217.864 85.3828C217.938 89.6317 218.34 93.8685 219.065 98.0557C219.781 102.284 220.776 106.461 222.043 110.558C219.026 103.596 217.063 96.2239 216.219 88.6837C216.053 87.3145 215.974 85.869 215.922 84.4629L216.912 84.4366C224.928 84.1664 232.823 82.4016 240.19 79.2329C242.886 78.102 245.485 76.7509 247.959 75.1934C252.923 78.4024 258.495 80.6547 264.164 82.2894C269.244 83.7444 274.486 84.5559 279.768 84.7047L279.702 85.4458C277.718 103.441 271.518 123.291 258.69 136.506V136.498Z" fill="#0A9DFD"/>
<path d="M93.975 195.876C82.8553 209.34 71.1863 222.575 59.5462 235.6L58.1848 237.122C57.5566 236.315 51.1229 227.808 50.3003 226.746C35.12 206.67 19.5508 185.589 4.81736 165.158L4 164.025C11.3378 156.29 18.7422 148.616 26.2132 141.005C30.2211 136.979 35.1647 131.933 39.2436 128.014C37.057 130.737 33.6982 134.729 31.417 137.462C23.5325 146.805 15.4483 156.135 7.36404 165.287L7.4718 163.184C20.5285 180.267 34.0898 198.401 46.7838 215.732C50.0007 220.113 56.4686 229.012 59.6618 233.419L57.0336 233.275C69.1232 220.659 81.4151 208.007 93.975 195.873V195.876Z" fill="#0A9DFD"/>
<path d="M79.1653 194.593C73.1206 202.097 66.742 209.403 60.3346 216.609L59.4226 217.619L58.5921 216.515C48.8968 203.76 39.0675 190.577 29.5877 177.636L20.0764 164.559L19.5298 163.812C22.9622 160.283 27.4905 155.444 30.9281 151.986C34.4919 148.343 38.2607 144.553 41.927 141.008C41.1149 142.02 40.2896 143.018 39.467 144.02C33.8349 150.821 27.6403 157.999 21.7742 164.651L21.8478 163.25C31.2514 175.602 41.764 189.647 50.889 202.102C54.0848 206.441 57.2386 210.814 60.4134 215.169L58.6657 215.061C65.3517 208.115 72.1482 201.2 79.1653 194.585V194.593Z" fill="#0A9DFD"/>
</g>
<defs>
<clipPath id="clip0_1251_4057">
<rect width="291.121" height="180" fill="white" transform="translate(4 60)"/>
</clipPath>
</defs>
</svg>
