<svg width="300" height="300" viewBox="0 0 300 300" fill="none" xmlns="http://www.w3.org/2000/svg">
<g clip-path="url(#clip0_1251_4063)">
<g clip-path="url(#clip1_1251_4063)">
<path d="M275.529 150.709C289.135 135.554 295.255 115.169 297.848 95.3267C298.005 93.9977 298.145 92.6489 298.234 91.3384L299.08 92.2429C292.677 92.4528 286.24 91.6868 280.042 90.0468C274.597 88.6149 269.311 86.5674 264.356 83.8849C263.637 83.4869 262.918 83.0749 262.218 82.6285H263.901C253.737 88.8334 241.343 92.3499 229.447 92.5341C228.671 92.5518 227.803 92.5242 227.039 92.5205L228.164 91.3863C228.17 93.8234 228.332 96.3001 228.562 98.7345C229.294 106.148 230.786 113.48 232.992 120.604C229.197 111.985 226.901 102.705 226.036 93.3278C225.927 92.3952 225.924 91.2775 225.872 90.3162C227.804 90.2403 229.757 90.174 231.675 89.9803C242.036 88.9621 252.212 85.7658 261.273 80.6401C261.811 80.3194 262.545 79.8685 263.065 79.5263C268.837 83.2586 275.297 85.8675 281.882 87.7884C287.778 89.4554 293.866 90.4195 300 90.5811L299.925 91.4522C297.694 112.139 290.319 135.58 275.529 150.709H275.529Z" fill="#0A9DFD"/>
<path d="M271.473 139.428C281.103 128.749 285.484 113.442 286.8 99.3702L287.363 99.9732C278.702 100.218 269.944 97.9218 262.502 93.4768H263.617C262.675 94.0798 261.726 94.598 260.737 95.103C254.906 97.9838 248.509 99.7818 242.004 100.108C240.922 100.168 239.838 100.168 238.756 100.154L239.502 99.4025C239.534 102.714 239.897 106.052 240.442 109.326C240.991 112.638 241.791 115.9 242.773 119.116C240.39 113.686 238.896 107.876 238.213 101.986C238.084 100.916 238.022 99.7822 237.979 98.6818L238.756 98.6625C245.022 98.4847 251.222 97.0336 256.983 94.5867C259.076 93.6764 261.152 92.6643 263.067 91.4236C266.954 93.9376 271.317 95.7002 275.757 96.9869C279.734 98.1163 283.841 98.7573 287.979 98.8652L287.927 99.4461C286.374 113.537 281.519 129.081 271.473 139.428Z" fill="#0A9DFD"/>
<path d="M70.4545 185.922C61.7467 196.464 52.6099 206.829 43.4899 217.026L42.4238 218.219C41.9326 217.586 36.8953 210.926 36.2549 210.093C24.3681 194.372 12.166 177.867 0.638753 161.867L-0.000244141 160.983C5.746 154.925 11.5313 148.903 17.3932 142.957C20.5325 139.805 24.4023 135.854 27.5979 132.785C25.8842 134.917 23.2543 138.042 21.4688 140.183C15.2958 147.498 8.96424 154.804 2.63333 161.969L2.71812 160.324C12.9433 173.704 23.5612 187.909 33.5018 201.471C36.0211 204.901 41.0855 211.87 43.5827 215.32L41.5268 215.209C50.9874 205.323 60.6185 195.423 70.4549 185.922L70.4545 185.922Z" fill="#0A9DFD"/>
<path d="M58.8579 184.918C54.1178 190.794 49.1287 196.516 44.1124 202.158L43.3989 202.948L42.7471 202.084C35.1563 192.097 27.46 181.775 20.0352 171.641L12.5893 161.4L12.1606 160.811C14.8486 158.046 18.394 154.258 21.0854 151.551C23.8756 148.699 26.8271 145.732 29.6978 142.956C29.0623 143.747 28.4165 144.529 27.773 145.313C23.3621 150.64 18.5027 156.26 13.9181 161.469L13.9745 160.372C21.3387 170.051 29.57 181.041 36.7165 190.794C39.2181 194.193 41.6871 197.616 44.1739 201.026L42.8087 200.951C48.046 195.513 53.3666 190.099 58.8581 184.918L58.8579 184.918Z" fill="#0A9DFD"/>
<path d="M78.9779 124.76H86.948C89.9409 124.835 92.2326 125.658 93.8232 127.23C95.4134 128.801 96.2088 130.99 96.2088 133.796C96.2088 135.144 95.9648 136.79 95.4791 138.736C94.8424 141.093 93.9356 143.329 92.7568 145.443C91.5782 147.557 90.1469 149.269 88.4633 150.578L87.9019 169.661H79.7077L80.6617 152.88H79.4829L75.0491 169.661H66.9106L78.9779 124.76ZM81.4475 146.705C82.6823 146.705 83.7487 146.032 84.6468 144.685C85.5447 143.338 86.3306 141.205 87.004 138.287C87.5654 135.929 87.8459 134.209 87.8459 133.123C87.8459 132.337 87.6864 131.776 87.3689 131.439C87.0505 131.102 86.5173 130.934 85.7694 130.934H85.3202L81.1108 146.705H81.4477L81.4475 146.705Z" fill="white"/>
<path d="M95.4009 167.557C94.203 165.78 93.6047 163.207 93.6047 159.839C93.6047 156.022 94.3151 151.514 95.7376 146.313C97.6455 139.128 99.975 133.647 102.725 129.868C105.475 126.089 108.497 124.199 111.79 124.199C114.109 124.199 115.877 125.088 117.093 126.865C118.309 128.643 118.917 131.234 118.917 134.639C118.917 138.231 118.206 142.721 116.785 148.109C114.877 155.293 112.547 160.775 109.797 164.554C107.047 168.334 104.025 170.223 100.732 170.223C98.3753 170.223 96.5976 169.334 95.4007 167.557L95.4009 167.557ZM103.623 162.253C104.203 161.242 104.886 159.512 105.672 157.061C106.458 154.611 107.486 151.027 108.759 146.313C109.844 142.272 110.62 139.176 111.088 137.024C111.555 134.873 111.79 133.311 111.79 132.337C111.79 131.215 111.434 130.653 110.723 130.653C110.086 130.653 109.479 131.159 108.899 132.169C108.319 133.179 107.636 134.901 106.851 137.332C106.065 139.765 105.035 143.357 103.764 148.109C102.678 152.187 101.902 155.284 101.434 157.398C100.966 159.512 100.733 161.055 100.733 162.028C100.733 162.665 100.826 163.114 101.013 163.375C101.2 163.637 101.481 163.768 101.855 163.768C102.453 163.768 103.043 163.263 103.623 162.252V162.253Z" fill="white"/>
<path d="M126.921 124.76H133.375L133.6 146.93H133.937L139.886 124.76H146.509L134.442 169.661H127.988L127.707 147.772H127.482L121.645 169.661H114.854L126.921 124.76Z" fill="white"/>
<path d="M144.241 167.557C143.043 165.78 142.445 163.207 142.445 159.839C142.445 156.022 143.155 151.514 144.578 146.313C146.486 139.128 148.815 133.647 151.566 129.868C154.316 126.089 157.337 124.199 160.63 124.199C162.95 124.199 164.717 125.088 165.934 126.865C167.149 128.643 167.758 131.234 167.758 134.639C167.758 138.231 167.047 142.721 165.625 148.109C163.717 155.293 161.388 160.775 158.637 164.554C155.887 168.334 152.865 170.223 149.573 170.223C147.216 170.223 145.438 169.334 144.241 167.557L144.241 167.557ZM152.464 162.253C153.043 161.242 153.727 159.512 154.512 157.061C155.298 154.611 156.327 151.027 157.599 146.313C158.684 142.272 159.46 139.176 159.928 137.024C160.396 134.873 160.63 133.311 160.63 132.337C160.63 131.215 160.274 130.653 159.563 130.653C158.927 130.653 158.319 131.159 157.739 132.169C157.159 133.179 156.476 134.901 155.691 137.332C154.905 139.765 153.875 143.357 152.604 148.109C151.518 152.187 150.742 155.284 150.275 157.398C149.807 159.512 149.573 161.055 149.573 162.028C149.573 162.665 149.666 163.114 149.854 163.375C150.04 163.637 150.321 163.768 150.696 163.768C151.294 163.768 151.883 163.263 152.464 162.252V162.253Z" fill="white"/>
<path d="M166.978 168.202C165.575 166.855 164.874 164.89 164.874 162.309C164.874 160.887 165.098 159.316 165.547 157.594L173.573 155.91C172.862 158.867 172.507 160.906 172.507 162.028C172.507 162.665 172.609 163.114 172.815 163.375C173.02 163.637 173.311 163.768 173.685 163.768C174.508 163.768 175.173 163.422 175.678 162.73C176.183 162.038 176.622 160.943 176.997 159.446C177.221 158.661 177.333 157.875 177.333 157.089C177.333 155.817 177.127 154.573 176.716 153.357C176.304 152.141 175.65 150.522 174.752 148.502C173.778 146.407 173.03 144.582 172.507 143.029C171.982 141.477 171.721 139.858 171.721 138.174C171.721 136.977 171.889 135.761 172.226 134.526C173.124 131.196 174.62 128.642 176.716 126.865C178.811 125.088 181.337 124.199 184.293 124.199C186.725 124.199 188.624 124.872 189.99 126.219C191.355 127.566 192.039 129.494 192.039 132C192.039 133.273 191.795 134.882 191.309 136.827L183.395 138.511C184.143 135.556 184.518 133.479 184.518 132.281C184.518 131.683 184.424 131.262 184.237 131.018C184.049 130.775 183.732 130.654 183.283 130.654C182.796 130.654 182.273 131 181.711 131.692C181.15 132.385 180.701 133.385 180.364 134.695C180.14 135.518 180.028 136.378 180.028 137.276C180.028 138.587 180.233 139.858 180.645 141.093C181.056 142.328 181.711 143.955 182.609 145.976C183.582 148.184 184.321 150.055 184.826 151.588C185.331 153.123 185.584 154.731 185.584 156.415C185.584 157.613 185.416 158.867 185.079 160.176C184.181 163.507 182.674 166.013 180.561 167.697C178.446 169.38 175.855 170.222 172.787 170.222C170.318 170.222 168.381 169.549 166.978 168.202L166.978 168.202Z" fill="white"/>
<path d="M199.65 130.934H194.205L196.282 124.76H214.074L212.727 130.934H207.788L197.405 169.661H189.266L199.65 130.934Z" fill="white"/>
<path d="M217.587 124.76H225.725L213.657 169.661H205.519L217.587 124.76Z" fill="white"/>
<path d="M221.492 160.344C221.492 156.752 222.222 152.187 223.681 146.649C225.626 139.316 227.975 133.74 230.725 129.924C233.475 126.107 236.515 124.199 239.845 124.199C242.165 124.199 243.952 124.882 245.206 126.248C246.459 127.614 247.086 129.55 247.086 132.057C247.086 133.554 246.824 135.294 246.3 137.277L238.611 139.129C239.433 135.837 239.846 133.592 239.846 132.394C239.846 131.234 239.509 130.654 238.835 130.654C237.9 130.654 236.936 131.916 235.945 134.442C234.953 136.968 233.616 141.411 231.932 147.772C230.846 151.701 230.06 154.788 229.575 157.033C229.088 159.278 228.845 160.925 228.845 161.972C228.845 163.17 229.182 163.768 229.855 163.768C230.491 163.768 231.118 163.216 231.735 162.113C232.353 161.009 233.111 158.885 234.008 155.742L240.8 157.875C239.677 162.028 238.087 165.125 236.029 167.164C233.971 169.204 231.576 170.223 228.845 170.223C223.943 170.223 221.492 166.93 221.492 160.344L221.492 160.344Z" fill="white"/>
<path d="M255.762 124.76H267.998L260.365 169.661H252.732L254.752 158.717H251.497L247.68 169.661H239.486L255.762 124.76ZM256.268 152.543L259.692 134.189H259.411L253.125 152.543H256.268Z" fill="white"/>
<path d="M99.7909 218.453C98.3878 217.106 97.686 215.142 97.686 212.56C97.686 211.138 97.9106 209.567 98.3594 207.845L106.385 206.161C105.674 209.118 105.319 211.157 105.319 212.279C105.319 212.916 105.422 213.365 105.628 213.626C105.833 213.888 106.123 214.019 106.498 214.019C107.32 214.019 107.985 213.674 108.49 212.981C108.995 212.289 109.435 211.194 109.809 209.697C110.034 208.912 110.146 208.126 110.146 207.34C110.146 206.068 109.94 204.824 109.529 203.608C109.116 202.392 108.462 200.773 107.564 198.753C106.591 196.658 105.843 194.834 105.319 193.28C104.795 191.728 104.533 190.109 104.533 188.425C104.533 187.228 104.702 186.012 105.039 184.777C105.937 181.447 107.433 178.894 109.529 177.116C111.624 175.339 114.15 174.45 117.106 174.45C119.537 174.45 121.436 175.123 122.803 176.47C124.168 177.817 124.851 179.745 124.851 182.251C124.851 183.524 124.607 185.133 124.121 187.078L116.207 188.762C116.956 185.807 117.33 183.73 117.33 182.532C117.33 181.934 117.236 181.513 117.05 181.269C116.862 181.026 116.544 180.905 116.095 180.905C115.609 180.905 115.085 181.251 114.524 181.943C113.962 182.636 113.514 183.636 113.177 184.946C112.952 185.769 112.84 186.629 112.84 187.527C112.84 188.838 113.045 190.109 113.457 191.344C113.869 192.579 114.524 194.206 115.422 196.227C116.394 198.435 117.133 200.306 117.639 201.839C118.144 203.374 118.396 204.983 118.396 206.666C118.396 207.864 118.228 209.118 117.891 210.427C116.993 213.758 115.487 216.264 113.373 217.948C111.259 219.632 108.667 220.473 105.6 220.473C103.13 220.473 101.194 219.8 99.7907 218.453L99.7909 218.453Z" fill="white"/>
<path d="M130.834 175.011H146.774L144.192 181.185H137.288L133.528 195.217H139.87L137.288 201.391H131.9L128.589 213.738H136.559L133.921 219.912H118.767L130.834 175.011Z" fill="white"/>
<path d="M150.174 175.011H158.312L146.245 219.912H138.107L150.174 175.011Z" fill="white"/>
<path d="M154.332 218.453C152.929 217.106 152.228 215.142 152.228 212.56C152.228 211.138 152.452 209.567 152.901 207.845L160.927 206.161C160.216 209.118 159.861 211.157 159.861 212.279C159.861 212.916 159.963 213.365 160.169 213.626C160.375 213.888 160.665 214.019 161.039 214.019C161.862 214.019 162.527 213.674 163.032 212.981C163.537 212.289 163.976 211.194 164.351 209.697C164.575 208.912 164.688 208.126 164.688 207.34C164.688 206.068 164.481 204.824 164.07 203.608C163.658 202.392 163.004 200.773 162.106 198.753C161.133 196.658 160.384 194.834 159.861 193.28C159.336 191.728 159.075 190.109 159.075 188.425C159.075 187.228 159.243 186.012 159.58 184.777C160.478 181.447 161.974 178.894 164.07 177.116C166.165 175.339 168.691 174.45 171.647 174.45C174.079 174.45 175.978 175.123 177.344 176.47C178.71 177.817 179.393 179.745 179.393 182.251C179.393 183.524 179.149 185.133 178.663 187.078L170.749 188.762C171.497 185.807 171.872 183.73 171.872 182.532C171.872 181.934 171.778 181.513 171.591 181.269C171.403 181.026 171.086 180.905 170.637 180.905C170.15 180.905 169.627 181.251 169.065 181.943C168.504 182.636 168.055 183.636 167.718 184.946C167.494 185.769 167.382 186.629 167.382 187.527C167.382 188.838 167.587 190.109 167.999 191.344C168.41 192.579 169.065 194.206 169.963 196.227C170.936 198.435 171.675 200.306 172.18 201.839C172.685 203.374 172.938 204.983 172.938 206.666C172.938 207.864 172.77 209.118 172.433 210.427C171.535 213.758 170.028 216.264 167.915 217.948C165.8 219.632 163.209 220.473 160.141 220.473C157.672 220.473 155.736 219.8 154.332 218.453L154.332 218.453Z" fill="white"/>
<path d="M45.591 157.311L48.574 146.276H56.3449C59.4909 146.276 61.3387 144.841 63.0376 138.942C64.3903 134.245 63.8955 130.935 61.4931 130.935H52.7661L54.4571 124.761H62.1792C70.5878 124.761 74.0771 129.756 71.4458 139.69C68.7575 149.905 63.3232 152.45 55.5437 152.45H54.6285L53.2242 158.164L45.5906 157.311H45.591Z" fill="white"/>
<path d="M43.8748 163.506L52.6265 161.71L50.4529 169.736H42.1584L43.8748 163.506Z" fill="white"/>
</g>
</g>
<defs>
<clipPath id="clip0_1251_4063">
<rect width="300" height="300" fill="white"/>
</clipPath>
<clipPath id="clip1_1251_4063">
<rect width="300" height="140.947" fill="white" transform="translate(0 79.5265)"/>
</clipPath>
</defs>
</svg>
