<svg width="300" height="300" viewBox="0 0 300 300" fill="none" xmlns="http://www.w3.org/2000/svg">
<g clip-path="url(#clip0_1251_4066)">
<path d="M263.871 150.906C281.247 131.552 289.063 105.518 292.374 80.1781C292.575 78.4808 292.754 76.7583 292.867 75.0847L293.947 76.2398C285.77 76.5078 277.549 75.5296 269.634 73.4352C262.681 71.6066 255.93 68.9918 249.602 65.566C248.684 65.0577 247.765 64.5315 246.871 63.9615H249.021C236.04 71.8857 220.213 76.3764 205.02 76.6117C204.03 76.6343 202.921 76.599 201.946 76.5943L203.383 75.1459C203.389 78.2582 203.597 81.4212 203.89 84.5301C204.825 93.9978 206.731 103.361 209.548 112.459C204.701 101.452 201.77 89.6006 200.665 77.6253C200.526 76.4343 200.521 75.0069 200.455 73.7793C202.923 73.6823 205.417 73.5977 207.866 73.3504C221.098 72.0499 234.093 67.9681 245.665 61.4221C246.352 61.0127 247.29 60.4368 247.954 59.9998C255.324 64.7662 263.574 68.098 271.985 70.5511C279.514 72.6799 287.289 73.9112 295.122 74.1175L295.027 75.23C292.177 101.649 282.76 131.585 263.871 150.906H263.871Z" fill="#0A9DFD"/>
<path d="M258.69 136.499C270.988 122.86 276.583 103.312 278.263 85.3419L278.983 86.112C267.922 86.425 256.737 83.4922 247.234 77.8156H248.658C247.455 78.5857 246.243 79.2474 244.98 79.8924C237.533 83.5713 229.364 85.8676 221.056 86.2836C219.675 86.3611 218.29 86.3611 216.909 86.343L217.861 85.3832C217.902 89.6127 218.366 93.8756 219.062 98.0568C219.763 102.286 220.785 106.452 222.038 110.559C218.995 103.624 217.087 96.205 216.215 88.6829C216.05 87.3159 215.971 85.8681 215.917 84.4628L216.909 84.4381C224.91 84.211 232.829 82.3579 240.185 79.233C242.859 78.0705 245.51 76.778 247.955 75.1935C252.919 78.4041 258.492 80.6551 264.161 82.2982C269.24 83.7406 274.485 84.5592 279.769 84.697L279.703 85.4389C277.72 103.434 271.52 123.285 258.69 136.499Z" fill="#0A9DFD"/>
<path d="M93.9761 195.875C82.8555 209.338 71.1872 222.575 59.5402 235.598L58.1788 237.12C57.5517 236.313 51.1184 227.807 50.3005 226.743C35.1205 206.667 19.5372 185.588 4.81605 165.155L4 164.026C11.3387 156.291 18.7267 148.599 26.2128 141.006C30.2218 136.98 35.1641 131.934 39.2449 128.015C37.0567 130.738 33.6978 134.729 31.4176 137.464C23.5342 146.805 15.4483 156.135 7.36327 165.286L7.47156 163.184C20.5299 180.272 34.09 198.413 46.7846 215.732C50.002 220.113 56.4697 229.013 59.6587 233.419L57.0331 233.277C69.1149 220.652 81.4147 208.009 93.9766 195.875L93.9761 195.875Z" fill="#0A9DFD"/>
<path d="M79.1665 194.593C73.1127 202.097 66.7415 209.405 60.3353 216.61L59.4241 217.618L58.5915 216.516C48.8972 203.761 39.0687 190.579 29.5867 177.637L20.0777 164.559L19.5303 163.806C22.9629 160.276 27.4908 155.438 30.9279 151.98C34.4912 148.338 38.2602 144.549 41.9265 141.004C41.1149 142.015 40.2902 143.014 39.4684 144.015C33.8354 150.817 27.6295 157.995 21.7747 164.646L21.8467 163.246C31.2514 175.607 41.7636 189.642 50.8899 202.097C54.0847 206.437 57.2377 210.809 60.4136 215.163L58.6701 215.069C65.3588 208.123 72.1534 201.21 79.1665 194.593Z" fill="#0A9DFD"/>
<path d="M106.129 117.767H116.307C120.13 117.863 123.057 118.914 125.088 120.921C127.118 122.928 128.134 125.723 128.134 129.307C128.134 131.027 127.823 133.13 127.203 135.615C126.389 138.625 125.231 141.481 123.726 144.18C122.221 146.88 120.393 149.066 118.243 150.739L117.526 175.109H107.061L108.28 153.677H106.774L101.112 175.109H90.7185L106.129 117.767ZM109.283 145.793C110.86 145.793 112.222 144.932 113.369 143.212C114.515 141.492 115.519 138.768 116.379 135.041C117.096 132.03 117.454 129.833 117.454 128.447C117.454 127.443 117.25 126.727 116.845 126.296C116.439 125.866 115.758 125.651 114.803 125.651H114.229L108.853 145.792H109.283L109.283 145.793Z" fill="white"/>
<path d="M127.103 172.421C125.573 170.152 124.809 166.866 124.809 162.565C124.809 157.691 125.716 151.934 127.532 145.291C129.969 136.116 132.944 129.117 136.456 124.289C139.968 119.464 143.827 117.05 148.032 117.05C150.994 117.05 153.252 118.186 154.806 120.455C156.358 122.725 157.135 126.034 157.135 130.382C157.135 134.97 156.227 140.704 154.411 147.585C151.974 156.76 149 163.761 145.488 168.586C141.976 173.414 138.116 175.826 133.912 175.826C130.901 175.826 128.631 174.691 127.102 172.421L127.103 172.421ZM137.603 165.647C138.343 164.357 139.216 162.147 140.219 159.017C141.223 155.888 142.537 151.312 144.162 145.291C145.547 140.13 146.538 136.177 147.136 133.428C147.733 130.681 148.032 128.687 148.032 127.443C148.032 126.009 147.578 125.293 146.67 125.293C145.857 125.293 145.081 125.938 144.341 127.228C143.6 128.518 142.728 130.717 141.725 133.823C140.721 136.929 139.406 141.517 137.782 147.585C136.396 152.793 135.405 156.748 134.808 159.447C134.21 162.147 133.912 164.119 133.912 165.361C133.912 166.174 134.031 166.747 134.27 167.081C134.509 167.416 134.867 167.582 135.345 167.582C136.109 167.582 136.862 166.937 137.603 165.647V165.647Z" fill="white"/>
<path d="M167.356 117.767H175.599L175.886 146.079H176.316L183.914 117.767H192.372L176.961 175.109H168.718L168.36 147.155H168.073L160.619 175.109H151.946L167.357 117.767H167.356Z" fill="white"/>
<path d="M189.475 172.421C187.945 170.152 187.181 166.866 187.181 162.565C187.181 157.691 188.089 151.934 189.905 145.291C192.342 136.116 195.317 129.117 198.829 124.289C202.341 119.464 206.199 117.05 210.405 117.05C213.367 117.05 215.625 118.186 217.178 120.455C218.731 122.725 219.508 126.034 219.508 130.382C219.508 134.97 218.599 140.704 216.784 147.585C214.347 156.76 211.372 163.761 207.86 168.586C204.348 173.414 200.489 175.826 196.284 175.826C193.274 175.826 191.004 174.691 189.475 172.421L189.475 172.421ZM199.976 165.647C200.716 164.357 201.589 162.147 202.592 159.017C203.596 155.888 204.909 151.312 206.534 145.291C207.92 140.13 208.911 136.177 209.509 133.428C210.106 130.681 210.405 128.687 210.405 127.443C210.405 126.009 209.95 125.293 209.043 125.293C208.23 125.293 207.454 125.938 206.713 127.228C205.972 128.518 205.101 130.717 204.097 133.823C203.094 136.929 201.779 141.517 200.155 147.585C198.768 152.793 197.777 156.748 197.181 159.447C196.583 162.147 196.285 164.119 196.285 165.361C196.285 166.174 196.403 166.747 196.643 167.081C196.881 167.416 197.24 167.582 197.718 167.582C198.482 167.582 199.235 166.937 199.976 165.647V165.647Z" fill="white"/>
<path d="M218.513 173.245C216.721 171.525 215.824 169.016 215.824 165.719C215.824 163.904 216.111 161.897 216.685 159.698L226.935 157.548C226.026 161.323 225.573 163.927 225.573 165.361C225.573 166.174 225.704 166.747 225.967 167.081C226.229 167.416 226.599 167.583 227.078 167.583C228.128 167.583 228.977 167.142 229.622 166.257C230.268 165.373 230.829 163.975 231.307 162.064C231.594 161.06 231.737 160.056 231.737 159.053C231.737 157.429 231.474 155.84 230.949 154.287C230.422 152.734 229.587 150.667 228.44 148.086C227.197 145.411 226.242 143.081 225.573 141.098C224.903 139.116 224.569 137.048 224.569 134.898C224.569 133.369 224.784 131.816 225.214 130.239C226.361 125.986 228.272 122.725 230.949 120.455C233.624 118.186 236.85 117.05 240.625 117.05C243.73 117.05 246.155 117.91 247.9 119.63C249.644 121.35 250.516 123.812 250.516 127.013C250.516 128.638 250.205 130.693 249.585 133.177L239.478 135.328C240.434 131.553 240.912 128.901 240.912 127.372C240.912 126.608 240.792 126.07 240.553 125.759C240.314 125.449 239.908 125.293 239.335 125.293C238.713 125.293 238.045 125.735 237.328 126.619C236.611 127.504 236.037 128.782 235.608 130.454C235.321 131.505 235.177 132.604 235.177 133.751C235.177 135.424 235.439 137.048 235.966 138.625C236.491 140.202 237.328 142.28 238.475 144.861C239.717 147.681 240.66 150.07 241.306 152.028C241.951 153.989 242.273 156.042 242.273 158.193C242.273 159.723 242.058 161.323 241.628 162.995C240.481 167.249 238.557 170.45 235.858 172.6C233.158 174.75 229.849 175.825 225.931 175.825C222.777 175.825 220.304 174.965 218.512 173.245L218.513 173.245Z" fill="white"/>
<path d="M127.999 227.815C127.999 223.276 128.931 217.541 130.794 210.612C133.375 201.007 136.432 193.708 139.969 188.715C143.505 183.722 147.375 181.224 151.581 181.224C154.495 181.224 156.742 182.085 158.319 183.805C159.896 185.525 160.684 187.962 160.684 191.116C160.684 193.123 160.373 195.273 159.752 197.567L149.646 199.717C150.936 195.417 151.581 192.598 151.581 191.259C151.581 190.065 151.174 189.467 150.362 189.467C149.359 189.467 148.223 190.925 146.958 193.84C145.691 196.755 144.15 201.534 142.334 208.175H142.693C144.7 205.5 147.065 204.161 149.789 204.161C151.843 204.161 153.396 204.938 154.448 206.491C155.498 208.044 156.025 210.207 156.025 212.977C156.025 215.606 155.547 218.712 154.591 222.296C153.109 227.84 150.816 232.176 147.71 235.305C144.603 238.435 141.068 240 137.102 240C131.033 240 127.999 235.939 127.999 227.815H127.999ZM141.152 229.607C141.892 228.173 142.764 225.617 143.768 221.937C144.772 218.258 145.273 215.678 145.273 214.196C145.273 212.811 144.819 212.117 143.911 212.117C143.004 212.117 142.179 212.846 141.438 214.303C140.697 215.761 139.849 218.306 138.894 221.937C137.89 225.664 137.388 228.269 137.388 229.75C137.388 231.088 137.819 231.757 138.679 231.757C139.586 231.757 140.41 231.04 141.151 229.606L141.152 229.607Z" fill="white"/>
<path d="M62.2234 159.337L66.033 145.244H75.957C79.9746 145.244 82.3345 143.411 84.504 135.878C86.2315 129.879 85.5997 125.653 82.5316 125.653H71.3866L73.5461 117.768H83.4078C94.1463 117.768 98.6024 124.147 95.242 136.834C91.8088 149.879 84.8688 153.128 74.9338 153.128H73.7651L71.9716 160.426L62.2229 159.337H62.2234Z" fill="white"/>
<path d="M60.0317 167.248L71.2083 164.955L68.4324 175.204H57.8398L60.0317 167.248Z" fill="white"/>
</g>
<defs>
<clipPath id="clip0_1251_4066">
<rect width="291.122" height="180" fill="white" transform="translate(4 60)"/>
</clipPath>
</defs>
</svg>
