<svg width="300" height="300" viewBox="0 0 300 300" fill="none" xmlns="http://www.w3.org/2000/svg">
<g clip-path="url(#clip0_1251_4069)">
<g clip-path="url(#clip1_1251_4069)">
<path d="M274.971 150.737C289.107 134.993 295.465 113.815 298.158 93.2015C298.321 91.8208 298.467 90.4196 298.559 89.0581L299.437 89.9978C292.786 90.2158 286.098 89.4201 279.66 87.7164C274.004 86.2288 268.512 84.1017 263.364 81.3149C262.618 80.9014 261.87 80.4734 261.143 80.0097H262.892C252.332 86.4556 239.457 90.1089 227.098 90.3003C226.292 90.3187 225.39 90.2902 224.597 90.2862L225.766 89.1079C225.771 91.6397 225.94 94.2128 226.179 96.7417C226.939 104.444 228.49 112.06 230.781 119.461C226.839 110.507 224.454 100.867 223.555 91.1251C223.442 90.1562 223.438 88.9951 223.385 87.9964C225.392 87.9175 227.421 87.8487 229.413 87.6475C240.176 86.5896 250.748 83.2692 260.162 77.9442C260.721 77.6113 261.483 77.1427 262.023 76.7871C268.019 80.6645 274.73 83.375 281.572 85.3702C287.697 87.1019 294.022 88.1037 300.394 88.2714L300.316 89.1764C297.998 110.667 290.337 135.019 274.972 150.737H274.971Z" fill="#0A9DFD"/>
<path d="M270.758 139.017C280.762 127.923 285.313 112.02 286.68 97.4022L287.265 98.0286C278.268 98.2832 269.169 95.8975 261.438 91.2797H262.596C261.618 91.9061 260.632 92.4445 259.605 92.9691C253.547 95.9616 246.901 97.8298 240.143 98.168C239.019 98.2311 237.893 98.2311 236.769 98.2163L237.544 97.4355C237.577 100.876 237.955 104.344 238.521 107.745C239.091 111.186 239.922 114.574 240.942 117.915C238.467 112.274 236.914 106.239 236.205 100.12C236.071 99.0078 236.007 97.83 235.962 96.6868L236.769 96.6667C243.278 96.4818 249.72 94.9745 255.704 92.4325C257.879 91.4869 260.036 90.4354 262.025 89.1462C266.063 91.758 270.596 93.5893 275.208 94.9258C279.339 96.0991 283.606 96.7651 287.905 96.8771L287.851 97.4809C286.238 112.119 281.195 128.268 270.758 139.017L270.758 139.017Z" fill="#0A9DFD"/>
<path d="M73.5872 187.318C64.5409 198.27 55.049 209.038 45.5744 219.632L44.467 220.87C43.9568 220.213 38.7235 213.294 38.0582 212.429C25.7096 196.097 13.033 178.95 1.05763 162.328L0.393799 161.41C6.36362 155.117 12.3736 148.861 18.4634 142.684C21.7246 139.408 25.7451 135.304 29.0647 132.116C27.2846 134.331 24.5523 137.577 22.6974 139.802C16.2844 147.401 9.70675 154.991 3.12974 162.435L3.21783 160.725C13.8405 174.626 24.8713 189.382 35.1981 203.472C37.8153 207.036 43.0766 214.275 45.6708 217.859L43.535 217.744C53.3632 207.474 63.3689 197.189 73.5877 187.318L73.5872 187.318Z" fill="#0A9DFD"/>
<path d="M61.5395 186.276C56.6149 192.38 51.4321 198.324 46.2208 204.186L45.4796 205.006L44.8025 204.109C36.9166 193.734 28.9211 183.01 21.2078 172.482L13.4724 161.843L13.0271 161.231C15.8195 158.359 19.5028 154.423 22.2988 151.611C25.1974 148.648 28.2635 145.566 31.2459 142.682C30.5857 143.504 29.9148 144.317 29.2463 145.131C24.664 150.665 19.6156 156.503 14.8529 161.914L14.9115 160.776C22.562 170.831 31.1134 182.248 38.5374 192.379C41.1363 195.911 43.7012 199.467 46.2848 203.009L44.8664 202.932C50.3075 197.282 55.8348 191.658 61.5397 186.275L61.5395 186.276Z" fill="#0A9DFD"/>
<path d="M104.663 221.114C103.205 219.715 102.476 217.674 102.476 214.991C102.476 213.515 102.71 211.882 103.176 210.094L111.514 208.344C110.775 211.415 110.406 213.534 110.406 214.7C110.406 215.361 110.513 215.828 110.727 216.099C110.94 216.372 111.242 216.508 111.631 216.508C112.485 216.508 113.176 216.148 113.701 215.429C114.225 214.71 114.682 213.573 115.071 212.018C115.304 211.202 115.421 210.385 115.421 209.569C115.421 208.248 115.207 206.955 114.779 205.691C114.351 204.429 113.672 202.747 112.739 200.648C111.727 198.471 110.95 196.576 110.406 194.963C109.861 193.35 109.59 191.668 109.59 189.919C109.59 188.675 109.765 187.412 110.115 186.129C111.048 182.67 112.602 180.016 114.779 178.17C116.956 176.324 119.58 175.4 122.651 175.4C125.177 175.4 127.15 176.1 128.569 177.499C129.988 178.898 130.697 180.901 130.697 183.505C130.697 184.827 130.444 186.499 129.939 188.519L121.718 190.268C122.495 187.198 122.884 185.041 122.884 183.797C122.884 183.175 122.787 182.738 122.593 182.485C122.398 182.232 122.068 182.106 121.601 182.106C121.096 182.106 120.552 182.466 119.969 183.184C119.386 183.904 118.919 184.944 118.57 186.304C118.336 187.159 118.22 188.053 118.22 188.986C118.22 190.347 118.433 191.668 118.861 192.951C119.289 194.234 119.969 195.925 120.902 198.024C121.912 200.318 122.68 202.261 123.205 203.855C123.73 205.449 123.992 207.12 123.992 208.869C123.992 210.114 123.817 211.415 123.467 212.776C122.534 216.236 120.969 218.839 118.773 220.589C116.577 222.338 113.884 223.213 110.698 223.213C108.132 223.213 106.12 222.513 104.663 221.114L104.663 221.114Z" fill="white"/>
<path d="M136.912 175.984H153.472L150.79 182.397H143.618L139.711 196.974H146.3L143.618 203.388H138.02L134.58 216.216H142.86L140.12 222.63H124.376L136.913 175.984H136.912Z" fill="white"/>
<path d="M157.005 175.984H165.459L152.923 222.63H144.468L157.005 175.984Z" fill="white"/>
<path d="M50.5076 123.779H58.9623L46.426 170.425H37.9714L50.5076 123.779Z" fill="white"/>
<path d="M63.6611 123.779H70.3664L70.5997 146.811H70.9496L77.1303 123.779H84.0106L71.4745 170.425H64.769L64.4776 147.685H64.2444L58.1803 170.425H51.125L63.6611 123.779Z" fill="white"/>
<path d="M88.7094 123.779H96.5226C99.5547 123.779 101.858 124.809 103.432 126.869C105.006 128.93 105.793 131.904 105.793 135.791C105.793 139.367 105.171 143.449 103.928 148.035C101.945 155.344 99.3304 160.902 96.0852 164.711C92.8389 168.521 89.0389 170.425 84.686 170.425H76.1731L88.7094 123.779ZM86.7269 164.012C87.7373 164.012 88.6893 163.419 89.5841 162.233C90.4777 161.048 91.4007 159.172 92.3538 156.607C93.3058 154.041 94.3847 150.563 95.5898 146.169C97.1832 140.145 97.9805 136.005 97.9805 133.75C97.9805 132.506 97.7763 131.602 97.3684 131.039C96.9603 130.475 96.3479 130.193 95.5317 130.193H95.4151L86.3192 164.012H86.7273L86.7269 164.012Z" fill="white"/>
<path d="M107.344 168.239C106.1 166.393 105.478 163.72 105.478 160.222C105.478 156.256 106.216 151.573 107.694 146.169C109.676 138.706 112.096 133.012 114.953 129.085C117.81 125.159 120.949 123.196 124.37 123.196C126.78 123.196 128.617 124.12 129.88 125.965C131.143 127.812 131.775 130.504 131.775 134.041C131.775 137.773 131.036 142.437 129.559 148.035C127.577 155.498 125.157 161.194 122.3 165.119C119.443 169.046 116.303 171.008 112.883 171.008C110.434 171.008 108.588 170.085 107.344 168.239L107.344 168.239ZM115.886 162.729C116.489 161.679 117.198 159.882 118.015 157.335C118.831 154.79 119.9 151.067 121.222 146.169C122.348 141.971 123.155 138.755 123.641 136.519C124.127 134.284 124.37 132.662 124.37 131.651C124.37 130.484 124 129.901 123.262 129.901C122.601 129.901 121.969 130.426 121.367 131.475C120.764 132.525 120.055 134.313 119.239 136.84C118.423 139.367 117.353 143.099 116.032 148.035C114.904 152.272 114.098 155.489 113.612 157.685C113.126 159.881 112.884 161.485 112.884 162.495C112.884 163.157 112.98 163.623 113.175 163.895C113.369 164.167 113.661 164.303 114.05 164.303C114.671 164.303 115.283 163.778 115.886 162.729L115.886 162.729Z" fill="white"/>
<path d="M138.107 123.779H146.679L141.373 154.099H141.606L151.926 123.779H160.264L142.83 170.425H130.586L138.107 123.779Z" fill="white"/>
<path d="M163.389 123.779H171.844L159.307 170.425H150.853L163.389 123.779Z" fill="white"/>
<path d="M176.543 123.779H183.248L183.481 146.811H183.831L190.012 123.779H196.892L184.356 170.425H177.651L177.359 147.685H177.126L171.062 170.425H164.006L176.543 123.779Z" fill="white"/>
<path d="M204.507 123.779H217.218L209.288 170.425H201.358L203.457 159.055H200.075L196.11 170.425H187.597L204.507 123.779ZM205.031 152.641L208.588 133.575H208.296L201.766 152.641H205.031Z" fill="white"/>
<path d="M225.066 123.779H231.771L232.004 146.811H232.354L238.535 123.779H245.415L232.879 170.425H226.174L225.882 147.685H225.649L219.585 170.425H212.529L225.066 123.779Z" fill="white"/>
<path d="M250.114 123.779H266.673L263.991 130.193H256.82L252.913 144.77H259.502L256.82 151.184H251.222L247.782 164.012H256.062L253.321 170.425H237.578L250.114 123.779Z" fill="white"/>
</g>
</g>
<defs>
<clipPath id="clip0_1251_4069">
<rect width="300" height="300" fill="white"/>
</clipPath>
<clipPath id="clip1_1251_4069">
<rect width="300" height="146.426" fill="white" transform="translate(0.393799 76.7871)"/>
</clipPath>
</defs>
</svg>
