<svg width="300" height="300" viewBox="0 0 300 300" fill="none" xmlns="http://www.w3.org/2000/svg">
<g clip-path="url(#clip0_1251_4072)">
<path d="M263.871 150.906C281.247 131.552 289.063 105.518 292.374 80.1781C292.575 78.4808 292.754 76.7583 292.867 75.0847L293.947 76.2398C285.77 76.5078 277.549 75.5296 269.634 73.4352C262.681 71.6066 255.93 68.9918 249.602 65.566C248.684 65.0577 247.765 64.5315 246.871 63.9615H249.021C236.04 71.8857 220.213 76.3764 205.02 76.6117C204.03 76.6343 202.921 76.599 201.946 76.5943L203.383 75.1459C203.389 78.2582 203.597 81.4212 203.89 84.5301C204.825 93.9978 206.731 103.361 209.548 112.459C204.701 101.452 201.77 89.6006 200.665 77.6253C200.526 76.4343 200.521 75.0069 200.455 73.7793C202.923 73.6823 205.417 73.5977 207.866 73.3504C221.098 72.0499 234.093 67.9681 245.665 61.4221C246.352 61.0127 247.29 60.4368 247.954 59.9998C255.324 64.7662 263.574 68.098 271.985 70.5511C279.514 72.6799 287.289 73.9112 295.122 74.1175L295.027 75.23C292.177 101.649 282.76 131.585 263.871 150.906H263.871Z" fill="#0A9DFD"/>
<path d="M258.69 136.499C270.988 122.861 276.583 103.312 278.263 85.342L278.983 86.1121C267.922 86.4251 256.737 83.4923 247.234 77.8157H248.658C247.455 78.5858 246.243 79.2476 244.98 79.8925C237.533 83.5714 229.364 85.8677 221.056 86.2837C219.675 86.3612 218.29 86.3612 216.909 86.3431L217.861 85.3833C217.902 89.6128 218.366 93.8757 219.062 98.0569C219.763 102.286 220.785 106.452 222.038 110.559C218.995 103.624 217.087 96.2051 216.215 88.683C216.05 87.3161 215.971 85.8682 215.917 84.4629L216.909 84.4382C224.91 84.2111 232.829 82.358 240.185 79.2331C242.859 78.0707 245.51 76.7781 247.955 75.1936C252.919 78.4042 258.492 80.6552 264.161 82.2983C269.24 83.7407 274.485 84.5594 279.769 84.6971L279.703 85.439C277.72 103.434 271.52 123.285 258.69 136.499Z" fill="#0A9DFD"/>
<path d="M91.9761 195.875C80.8555 209.338 69.1872 222.575 57.5402 235.598L56.1788 237.12C55.5517 236.313 49.1184 227.807 48.3005 226.743C33.1205 206.667 17.5372 185.588 2.81605 165.155L2 164.026C9.33865 156.291 16.7267 148.6 24.2128 141.006C28.2218 136.98 33.1641 131.934 37.2449 128.015C35.0567 130.738 31.6978 134.729 29.4176 137.464C21.5342 146.806 13.4483 156.135 5.36327 165.286L5.47156 163.185C18.5299 180.272 32.09 198.413 44.7846 215.732C48.002 220.114 54.4697 229.013 57.6587 233.419L55.0331 233.277C67.1149 220.652 79.4147 208.009 91.9766 195.875L91.9761 195.875Z" fill="#0A9DFD"/>
<path d="M77.1665 194.593C71.1127 202.097 64.7415 209.405 58.3353 216.61L57.4241 217.618L56.5915 216.516C46.8972 203.761 37.0687 190.579 27.5867 177.637L18.0777 164.559L17.5303 163.806C20.9629 160.276 25.4908 155.438 28.9279 151.98C32.4912 148.338 36.2602 144.549 39.9265 141.004C39.1149 142.015 38.2902 143.013 37.4684 144.015C31.8354 150.817 25.6295 157.995 19.7747 164.646L19.8467 163.246C29.2514 175.607 39.7636 189.642 48.8899 202.097C52.0847 206.437 55.2377 210.809 58.4136 215.163L56.6701 215.069C63.3588 208.123 70.1534 201.21 77.1665 194.593Z" fill="#0A9DFD"/>
<path d="M94.5343 237.42C92.7424 235.7 91.8464 233.191 91.8464 229.893C91.8464 228.078 92.1332 226.071 92.7064 223.873L102.956 221.722C102.048 225.498 101.594 228.101 101.594 229.535C101.594 230.348 101.725 230.922 101.989 231.255C102.251 231.59 102.621 231.757 103.099 231.757C104.15 231.757 104.999 231.316 105.644 230.431C106.289 229.548 106.85 228.15 107.328 226.238C107.615 225.235 107.759 224.231 107.759 223.228C107.759 221.603 107.496 220.014 106.97 218.461C106.444 216.909 105.608 214.841 104.461 212.261C103.218 209.585 102.263 207.256 101.594 205.272C100.925 203.29 100.591 201.222 100.591 199.072C100.591 197.543 100.806 195.99 101.236 194.413C102.383 190.16 104.293 186.899 106.97 184.629C109.646 182.36 112.871 181.224 116.647 181.224C119.752 181.224 122.177 182.084 123.922 183.804C125.666 185.525 126.538 187.986 126.538 191.187C126.538 192.812 126.227 194.868 125.606 197.351L115.5 199.502C116.455 195.728 116.933 193.076 116.933 191.546C116.933 190.782 116.814 190.245 116.575 189.933C116.336 189.623 115.93 189.467 115.357 189.467C114.735 189.467 114.066 189.91 113.35 190.793C112.633 191.678 112.059 192.956 111.629 194.628C111.343 195.68 111.2 196.778 111.2 197.925C111.2 199.598 111.462 201.222 111.988 202.799C112.513 204.376 113.35 206.455 114.497 209.035C115.739 211.855 116.683 214.244 117.328 216.203C117.973 218.163 118.295 220.217 118.295 222.367C118.295 223.897 118.08 225.498 117.65 227.17C116.503 231.423 114.579 234.624 111.88 236.774C109.18 238.925 105.87 240 101.953 240C98.7987 240 96.3259 239.14 94.534 237.419L94.5343 237.42Z" fill="white"/>
<path d="M134.179 181.941H154.535L151.238 189.826H142.422L137.619 207.745H145.719L142.422 215.63H135.541L131.312 231.399H141.49L138.121 239.283H118.768L134.179 181.941H134.179Z" fill="white"/>
<path d="M158.878 181.941H169.271L153.86 239.283H143.467L158.878 181.941Z" fill="white"/>
<path d="M164.188 237.42C162.396 235.7 161.5 233.191 161.5 229.893C161.5 228.078 161.786 226.071 162.36 223.873L172.61 221.722C171.702 225.498 171.248 228.101 171.248 229.535C171.248 230.348 171.379 230.922 171.642 231.255C171.904 231.59 172.275 231.757 172.753 231.757C173.804 231.757 174.653 231.316 175.298 230.431C175.943 229.548 176.504 228.15 176.982 226.238C177.269 225.235 177.412 224.231 177.412 223.228C177.412 221.603 177.149 220.014 176.624 218.461C176.097 216.909 175.262 214.841 174.115 212.261C172.872 209.585 171.917 207.256 171.248 205.272C170.578 203.29 170.244 201.222 170.244 199.072C170.244 197.543 170.459 195.99 170.89 194.413C172.037 190.16 173.947 186.899 176.624 184.629C179.299 182.36 182.525 181.224 186.3 181.224C189.406 181.224 191.83 182.084 193.576 183.804C195.319 185.525 196.192 187.986 196.192 191.187C196.192 192.812 195.88 194.868 195.26 197.351L185.153 199.502C186.109 195.728 186.587 193.076 186.587 191.546C186.587 190.782 186.467 190.245 186.229 189.933C185.989 189.623 185.584 189.467 185.01 189.467C184.389 189.467 183.72 189.91 183.003 190.793C182.287 191.678 181.713 192.956 181.283 194.628C180.996 195.68 180.853 196.778 180.853 197.925C180.853 199.598 181.115 201.222 181.642 202.799C182.167 204.376 183.003 206.455 184.15 209.035C185.392 211.855 186.336 214.244 186.981 216.203C187.626 218.163 187.949 220.217 187.949 222.367C187.949 223.897 187.734 225.498 187.304 227.17C186.157 231.423 184.233 234.624 181.534 236.774C178.833 238.925 175.524 240 171.606 240C168.452 240 165.979 239.14 164.188 237.419L164.188 237.42Z" fill="white"/>
<path d="M62.1319 117.767H77.7577L68.0096 175.109H58.2614L60.8418 161.132H56.6845L51.8106 175.109H41.3457L62.1322 117.767H62.1319ZM62.7772 153.247L67.1494 129.809H66.7909L58.7631 153.247H62.7772Z" fill="white"/>
<path d="M87.4055 117.767H97.0101C100.737 117.767 103.569 119.033 105.504 121.566C107.439 124.099 108.407 127.754 108.407 132.532C108.407 136.929 107.642 141.947 106.113 147.585C103.676 156.569 100.462 163.402 96.4724 168.085C92.4818 172.768 87.8105 175.109 82.4595 175.109H71.9946L87.4055 117.767ZM84.9683 167.224C86.2104 167.224 87.3808 166.496 88.4806 165.038C89.5792 163.581 90.7138 161.275 91.8854 158.121C93.0558 154.968 94.3819 150.692 95.8634 145.291C97.8222 137.885 98.8023 132.796 98.8023 130.024C98.8023 128.495 98.5513 127.384 98.0498 126.691C97.5481 125.999 96.7954 125.652 95.792 125.652H95.6487L84.4672 167.225H84.9689L84.9683 167.224Z" fill="white"/>
<path d="M118.843 117.767H129.236L113.825 175.109H103.432L118.843 117.767Z" fill="white"/>
<path d="M133.077 117.767H143.614L137.091 155.039H137.378L150.064 117.767H160.314L138.883 175.109H123.831L133.077 117.767Z" fill="white"/>
<path d="M164.156 117.767H174.549L159.138 175.109H148.745L164.156 117.767Z" fill="white"/>
<path d="M180.325 117.767H188.568L188.855 146.079H189.285L196.883 117.767H205.341L189.93 175.109H181.687L181.329 147.155H181.042L173.587 175.109H164.914L180.325 117.767Z" fill="white"/>
<path d="M217.209 151.455H212.479L206.099 175.109H195.706L211.117 117.767H221.51L214.557 143.571H219.288L226.241 117.767H236.634L221.223 175.109H210.83L217.209 151.455Z" fill="white"/>
<path d="M242.41 117.767H262.766L259.469 125.651H250.653L245.851 143.571H253.95L250.653 151.455H243.772L239.543 167.224H249.721L246.353 175.109H227L242.41 117.767H242.41Z" fill="white"/>
</g>
<defs>
<clipPath id="clip0_1251_4072">
<rect width="291.122" height="180" fill="white" transform="translate(4 60)"/>
</clipPath>
</defs>
</svg>
