<svg width="25" height="24" viewBox="0 0 25 24" fill="none" xmlns="http://www.w3.org/2000/svg">
<path fill-rule="evenodd" clip-rule="evenodd" d="M3.75 5C3.19772 5 2.75 5.44772 2.75 6V18C2.75 18.5523 3.19772 19 3.75 19H12.25V5H3.75ZM13.25 5V19H21.75C22.3023 19 22.75 18.5523 22.75 18V6C22.75 5.44772 22.3023 5 21.75 5H13.25ZM6.625 9C6.625 8.65482 6.90482 8.375 7.25 8.375H8.25C8.59518 8.375 8.875 8.65482 8.875 9V14.375H9.25C9.59518 14.375 9.875 14.6548 9.875 15C9.875 15.3452 9.59518 15.625 9.25 15.625H7.25C6.90482 15.625 6.625 15.3452 6.625 15C6.625 14.6548 6.90482 14.375 7.25 14.375H7.625V9.625H7.25C6.90482 9.625 6.625 9.34518 6.625 9ZM15.125 9C15.125 8.65482 15.4048 8.375 15.75 8.375H19.25C19.5952 8.375 19.875 8.65482 19.875 9V12C19.875 12.3452 19.5952 12.625 19.25 12.625H16.375V14.375H19.25C19.5952 14.375 19.875 14.6548 19.875 15C19.875 15.3452 19.5952 15.625 19.25 15.625H15.75C15.4048 15.625 15.125 15.3452 15.125 15V12C15.125 11.6548 15.4048 11.375 15.75 11.375H18.625V9.625H15.75C15.4048 9.625 15.125 9.34518 15.125 9Z" fill="#5AF7DC"/>
</svg>
