<svg width="107" height="46" viewBox="0 0 107 46" fill="none" xmlns="http://www.w3.org/2000/svg">
<g id="_Key">
<g id="Union">
<path d="M52.0479 20.0251C51.755 19.7322 51.755 19.2574 52.0479 18.9645C52.3408 18.6716 52.8157 18.6716 53.1085 18.9645L55.5835 21.4394L58.0583 18.9645C58.3512 18.6716 58.826 18.6716 59.119 18.9645C59.4119 19.2573 59.4119 19.7322 59.119 20.0251L56.644 22.5L59.119 24.9749C59.4119 25.2678 59.4119 25.7427 59.119 26.0355C58.826 26.3284 58.3512 26.3284 58.0583 26.0355L55.5835 23.5607L53.1085 26.0355C52.8157 26.3284 52.3408 26.3284 52.048 26.0355C51.755 25.7426 51.755 25.2678 52.048 24.9749L54.5228 22.5001L52.0479 20.0251Z" fill="#5E5E70"/>
<path fill-rule="evenodd" clip-rule="evenodd" d="M48.9548 14.8787L41.3335 22.5L48.9548 30.1213C49.5175 30.684 50.2805 31 51.0762 31H61.3335C62.9904 31 64.3335 29.6569 64.3335 28V17C64.3335 15.3431 62.9904 14 61.3335 14H51.0762C50.2805 14 49.5175 14.3161 48.9548 14.8787ZM61.3335 29.7H51.0762C50.6252 29.7 50.1929 29.5209 49.874 29.2021L43.172 22.5L49.874 15.7979C50.1929 15.4791 50.6252 15.3 51.0762 15.3H61.3335C62.2723 15.3 63.0334 16.0611 63.0334 17V28C63.0334 28.9389 62.2723 29.7 61.3335 29.7Z" fill="#5E5E70"/>
</g>
</g>
</svg>
