<svg width="6" height="11" viewBox="0 0 6 11" fill="none" xmlns="http://www.w3.org/2000/svg">
<path fill-rule="evenodd" clip-rule="evenodd" d="M3.61704 5.53795L0.31846 2.31403C0.0915104 2.1063 -0.014137 1.8666 0.0015147 1.59495C0.0249923 1.32329 0.116945 1.08759 0.277375 0.887842C0.437805 0.688094 0.639317 0.564252 0.881919 0.516313C1.09657 0.468373 1.29972 0.526095 1.49137 0.689481L5.71827 4.77092C5.90609 4.96268 6 5.21835 6 5.53795C6 5.85754 5.90609 6.11322 5.71827 6.30498L1.66841 10.212C1.42581 10.4437 1.1793 10.5356 0.928873 10.4877C0.678446 10.4317 0.476934 10.3059 0.324329 10.1102C0.171725 9.9144 0.0875987 9.6807 0.071947 9.40904C0.0562953 9.13738 0.161943 8.89369 0.388892 8.67797L3.61704 5.53795Z" fill="#5AF7DC"/>
</svg>
