<svg width="16" height="16" viewBox="0 0 16 16" fill="none" xmlns="http://www.w3.org/2000/svg">
<path fill-rule="evenodd" clip-rule="evenodd" d="M8 16C12.4183 16 16 12.4183 16 8C16 3.58172 12.4183 0 8 0C3.58172 0 0 3.58172 0 8C0 12.4183 3.58172 16 8 16ZM10.9001 6.77301C10.9309 6.79165 10.9563 6.81844 10.9738 6.85065C10.9914 6.88286 11.0004 6.91933 11 6.95634C10.9996 6.99336 10.9897 7.0296 10.9714 7.06136L7.81962 12.9022C7.79544 12.9419 7.75921 12.972 7.71668 12.9878C7.67415 13.0035 7.62776 13.0041 7.58491 12.9893C7.54206 12.9745 7.5052 12.9452 7.48019 12.9061C7.45518 12.8669 7.44346 12.8203 7.44691 12.7734L7.79703 9.25605H5.20114C5.16536 9.25604 5.13023 9.24611 5.09937 9.22727C5.0685 9.20843 5.04303 9.18137 5.02557 9.14887C5.00811 9.11638 4.9993 9.07963 5.00004 9.04241C5.00079 9.00519 5.01106 8.96885 5.0298 8.93714L8.23457 3.09569C8.25935 3.05608 8.29622 3.02629 8.33924 3.01113C8.38227 2.99596 8.42894 2.99631 8.47176 3.0121C8.51457 3.02789 8.55103 3.05822 8.57527 3.09819C8.59951 3.13816 8.61011 3.18546 8.60537 3.23246L8.16356 6.74454H10.7988C10.8344 6.74454 10.8694 6.75436 10.9001 6.77301Z" fill="white"/>
</svg>
